<?xml version="1.0" encoding="utf-8" standalone="no"?>
<!DOCTYPE svg PUBLIC "-//W3C//DTD SVG 1.1//EN"
  "http://www.w3.org/Graphics/SVG/1.1/DTD/svg11.dtd">
<svg xmlns:xlink="http://www.w3.org/1999/xlink" width="507.276pt" height="267.079pt" viewBox="0 0 507.276 267.079" xmlns="http://www.w3.org/2000/svg" version="1.1">
 <metadata>
  <rdf:RDF xmlns:dc="http://purl.org/dc/elements/1.1/" xmlns:cc="http://creativecommons.org/ns#" xmlns:rdf="http://www.w3.org/1999/02/22-rdf-syntax-ns#">
   <cc:Work>
    <dc:type rdf:resource="http://purl.org/dc/dcmitype/StillImage"/>
    <dc:date>2025-02-14T01:08:52.636790</dc:date>
    <dc:format>image/svg+xml</dc:format>
    <dc:creator>
     <cc:Agent>
      <dc:title>Matplotlib v3.9.2, https://matplotlib.org/</dc:title>
     </cc:Agent>
    </dc:creator>
   </cc:Work>
  </rdf:RDF>
 </metadata>
 <defs>
  <style type="text/css">*{stroke-linejoin: round; stroke-linecap: butt}</style>
 </defs>
 <g id="figure_1">
  <g id="patch_1">
   <path d="M 0 267.079 
L 507.276 267.079 
L 507.276 0 
L 0 0 
z
" style="fill: #ffffff"/>
  </g>
  <g id="axes_1">
   <g id="patch_2">
    <path d="M 81.058 217.909 
L 426.218 217.909 
L 426.218 41.789 
L 81.058 41.789 
z
" style="fill: #ffffff"/>
   </g>
   <g id="PolyCollection_1">
    <defs>
     <path id="m894bf79c0d" d="M 96.787619 -151.576698 
L 96.787619 -147.693079 
L 102.105268 -105.280212 
L 107.422917 -92.680951 
L 112.740566 -86.318856 
L 118.058215 -82.351704 
L 123.375864 -79.826869 
L 128.693513 -77.93696 
L 134.011162 -76.489345 
L 139.328811 -75.285559 
L 144.64646 -74.326256 
L 149.964109 -73.505868 
L 155.281758 -72.767344 
L 160.599407 -72.133809 
L 165.917056 -71.601161 
L 171.234705 -71.085891 
L 176.552354 -70.624004 
L 181.870003 -70.205583 
L 187.187652 -69.831638 
L 192.505301 -69.465653 
L 197.82295 -69.164026 
L 203.140599 -68.863829 
L 208.458248 -68.592624 
L 213.775897 -68.334069 
L 219.093546 -68.099141 
L 224.411195 -67.86224 
L 229.728844 -67.653324 
L 235.046493 -67.450486 
L 240.364142 -67.271673 
L 245.681791 -67.080852 
L 250.99944 -66.916123 
L 256.317089 -66.751988 
L 261.634738 -66.593353 
L 266.952387 -66.463784 
L 272.270036 -66.318003 
L 277.587685 -66.199423 
L 282.905334 -66.072269 
L 288.222983 -65.954585 
L 293.540631 -65.838252 
L 298.85828 -65.72736 
L 304.175929 -65.630893 
L 309.493578 -65.528974 
L 314.811227 -65.427588 
L 320.128876 -65.330894 
L 325.446525 -65.242319 
L 330.764174 -65.163045 
L 336.081823 -65.072814 
L 341.399472 -64.992633 
L 346.717121 -64.922476 
L 352.03477 -64.839145 
L 357.352419 -64.773858 
L 362.670068 -64.706172 
L 367.987717 -64.637498 
L 373.305366 -64.571417 
L 378.623015 -64.513195 
L 383.940664 -64.457148 
L 389.258313 -64.389135 
L 394.575962 -64.324073 
L 399.893611 -64.276222 
L 405.21126 -64.224693 
L 410.528909 -64.168556 
L 410.528909 -65.198505 
L 410.528909 -65.198505 
L 405.21126 -65.254709 
L 399.893611 -65.315099 
L 394.575962 -65.357381 
L 389.258313 -65.433596 
L 383.940664 -65.499166 
L 378.623015 -65.566194 
L 373.305366 -65.629853 
L 367.987717 -65.710316 
L 362.670068 -65.780734 
L 357.352419 -65.859483 
L 352.03477 -65.934612 
L 346.717121 -66.015983 
L 341.399472 -66.103321 
L 336.081823 -66.190846 
L 330.764174 -66.281622 
L 325.446525 -66.386937 
L 320.128876 -66.481251 
L 314.811227 -66.579738 
L 309.493578 -66.692694 
L 304.175929 -66.793081 
L 298.85828 -66.913079 
L 293.540631 -67.026768 
L 288.222983 -67.148907 
L 282.905334 -67.264946 
L 277.587685 -67.387075 
L 272.270036 -67.532103 
L 266.952387 -67.658665 
L 261.634738 -67.80581 
L 256.317089 -67.945547 
L 250.99944 -68.098183 
L 245.681791 -68.252264 
L 240.364142 -68.440179 
L 235.046493 -68.623157 
L 229.728844 -68.804196 
L 224.411195 -69.009852 
L 219.093546 -69.23918 
L 213.775897 -69.482415 
L 208.458248 -69.754807 
L 203.140599 -70.033354 
L 197.82295 -70.347098 
L 192.505301 -70.696237 
L 187.187652 -71.068427 
L 181.870003 -71.465448 
L 176.552354 -71.914989 
L 171.234705 -72.364693 
L 165.917056 -72.901223 
L 160.599407 -73.489743 
L 155.281758 -74.132576 
L 149.964109 -74.885238 
L 144.64646 -75.740111 
L 139.328811 -76.752634 
L 134.011162 -77.95707 
L 128.693513 -79.396228 
L 123.375864 -81.294384 
L 118.058215 -83.928497 
L 112.740566 -87.895936 
L 107.422917 -94.599585 
L 102.105268 -108.000691 
L 96.787619 -151.576698 
z
" style="stroke: #0000ff; stroke-opacity: 0.2"/>
    </defs>
    <g clip-path="url(#p9c72f21993)">
     <use xlink:href="#m894bf79c0d" x="0" y="267.079" style="fill: #0000ff; fill-opacity: 0.2; stroke: #0000ff; stroke-opacity: 0.2"/>
    </g>
   </g>
   <g id="PolyCollection_2">
    <defs>
     <path id="me74a396007" d="M 96.747091 -217.218386 
L 96.747091 -216.509173 
L 102.024212 -149.712667 
L 107.301332 -123.453009 
L 112.578453 -116.829937 
L 117.855574 -113.35515 
L 123.141379 -123.142569 
L 128.427185 -106.745602 
L 133.71299 -102.562741 
L 138.998795 -99.993822 
L 144.284601 -97.748849 
L 149.579091 -96.766171 
L 154.873581 -93.520017 
L 160.168071 -90.507546 
L 165.462561 -87.804209 
L 170.757051 -85.676857 
L 176.05154 -84.021445 
L 181.34603 -82.670507 
L 186.6521 -83.945458 
L 191.958169 -80.723447 
L 197.264239 -79.710164 
L 202.570308 -78.744618 
L 207.876378 -77.768079 
L 213.182447 -76.835595 
L 218.488517 -75.950309 
L 223.806166 -77.285772 
L 229.123815 -74.531579 
L 234.441464 -73.818498 
L 239.759113 -73.185198 
L 245.076762 -72.584651 
L 250.394411 -72.021968 
L 255.71206 -71.477972 
L 261.029709 -70.977418 
L 266.347358 -70.513982 
L 271.665007 -70.060873 
L 276.982656 -69.660457 
L 282.300305 -69.284873 
L 287.617954 -68.945579 
L 292.935603 -68.615541 
L 298.253252 -68.318761 
L 303.570901 -68.02174 
L 308.88855 -67.761591 
L 314.206199 -67.518534 
L 319.523848 -67.28561 
L 324.841496 -67.066586 
L 330.159145 -66.865443 
L 335.476794 -66.653129 
L 340.794443 -66.457562 
L 346.112092 -66.274348 
L 351.429741 -66.116842 
L 356.74739 -65.95837 
L 362.065039 -65.801661 
L 367.382688 -65.665277 
L 372.700337 -65.534128 
L 378.017986 -65.395703 
L 383.335635 -65.278451 
L 388.653284 -65.156707 
L 393.970933 -65.039014 
L 399.288582 -64.935131 
L 404.606231 -64.824554 
L 409.92388 -64.72949 
L 409.92388 -65.878287 
L 409.92388 -65.878287 
L 404.606231 -65.964487 
L 399.288582 -66.06455 
L 393.970933 -66.172454 
L 388.653284 -66.273665 
L 383.335635 -66.390423 
L 378.017986 -66.505875 
L 372.700337 -66.628153 
L 367.382688 -66.772592 
L 362.065039 -66.900399 
L 356.74739 -67.061323 
L 351.429741 -67.20651 
L 346.112092 -67.367328 
L 340.794443 -67.547088 
L 335.476794 -67.729544 
L 330.159145 -67.93145 
L 324.841496 -68.128709 
L 319.523848 -68.340563 
L 314.206199 -68.563147 
L 308.88855 -68.808058 
L 303.570901 -69.077291 
L 298.253252 -69.369486 
L 292.935603 -69.676619 
L 287.617954 -69.994561 
L 282.300305 -70.36439 
L 276.982656 -70.731801 
L 271.665007 -71.151362 
L 266.347358 -71.587025 
L 261.029709 -72.080338 
L 255.71206 -72.595367 
L 250.394411 -73.169639 
L 245.076762 -73.767306 
L 239.759113 -74.384094 
L 234.441464 -75.063562 
L 229.123815 -75.85236 
L 223.806166 -79.892412 
L 218.488517 -76.920126 
L 213.182447 -77.812063 
L 207.876378 -78.792122 
L 202.570308 -79.813723 
L 197.264239 -80.891184 
L 191.958169 -81.907583 
L 186.6521 -85.231252 
L 181.34603 -83.858035 
L 176.05154 -85.225754 
L 170.757051 -86.909538 
L 165.462561 -89.112451 
L 160.168071 -91.950264 
L 154.873581 -94.701952 
L 149.579091 -98.097801 
L 144.284601 -99.008709 
L 138.998795 -101.430805 
L 133.71299 -104.660879 
L 128.427185 -110.082742 
L 123.141379 -127.222276 
L 117.855574 -122.863229 
L 112.578453 -128.208638 
L 107.301332 -137.707134 
L 102.024212 -158.315372 
L 96.747091 -217.218386 
z
" style="stroke: #ff0000; stroke-opacity: 0.2"/>
    </defs>
    <g clip-path="url(#p9c72f21993)">
     <use xlink:href="#me74a396007" x="0" y="267.079" style="fill: #ff0000; fill-opacity: 0.2; stroke: #ff0000; stroke-opacity: 0.2"/>
    </g>
   </g>
   <g id="matplotlib.axis_1">
    <g id="xtick_1">
     <g id="line2d_1">
      <defs>
       <path id="ma5c0a172d9" d="M 0 0 
L 0 3.5 
" style="stroke: #000000; stroke-width: 0.8"/>
      </defs>
      <g>
       <use xlink:href="#ma5c0a172d9" x="91.46997" y="217.909" style="stroke: #000000; stroke-width: 0.8"/>
      </g>
     </g>
     <g id="text_1">
      <!-- 0 -->
      <g transform="translate(86.37997 237.0665) scale(0.16 -0.16)">
       <defs>
        <path id="DejaVuSans-30" d="M 2034 4250 
Q 1547 4250 1301 3770 
Q 1056 3291 1056 2328 
Q 1056 1369 1301 889 
Q 1547 409 2034 409 
Q 2525 409 2770 889 
Q 3016 1369 3016 2328 
Q 3016 3291 2770 3770 
Q 2525 4250 2034 4250 
z
M 2034 4750 
Q 2819 4750 3233 4129 
Q 3647 3509 3647 2328 
Q 3647 1150 3233 529 
Q 2819 -91 2034 -91 
Q 1250 -91 836 529 
Q 422 1150 422 2328 
Q 422 3509 836 4129 
Q 1250 4750 2034 4750 
z
" transform="scale(0.015625)"/>
       </defs>
       <use xlink:href="#DejaVuSans-30"/>
      </g>
     </g>
    </g>
    <g id="xtick_2">
     <g id="line2d_2">
      <g>
       <use xlink:href="#ma5c0a172d9" x="204.111024" y="217.909" style="stroke: #000000; stroke-width: 0.8"/>
      </g>
     </g>
     <g id="text_2">
      <!-- 2×10⁷ -->
      <g transform="translate(178.929774 237.0665) scale(0.16 -0.16)">
       <defs>
        <path id="DejaVuSans-32" d="M 1228 531 
L 3431 531 
L 3431 0 
L 469 0 
L 469 531 
Q 828 903 1448 1529 
Q 2069 2156 2228 2338 
Q 2531 2678 2651 2914 
Q 2772 3150 2772 3378 
Q 2772 3750 2511 3984 
Q 2250 4219 1831 4219 
Q 1534 4219 1204 4116 
Q 875 4013 500 3803 
L 500 4441 
Q 881 4594 1212 4672 
Q 1544 4750 1819 4750 
Q 2544 4750 2975 4387 
Q 3406 4025 3406 3419 
Q 3406 3131 3298 2873 
Q 3191 2616 2906 2266 
Q 2828 2175 2409 1742 
Q 1991 1309 1228 531 
z
" transform="scale(0.015625)"/>
        <path id="DejaVuSans-d7" d="M 4488 3438 
L 3059 2003 
L 4488 575 
L 4116 197 
L 2681 1631 
L 1247 197 
L 878 575 
L 2303 2003 
L 878 3438 
L 1247 3816 
L 2681 2381 
L 4116 3816 
L 4488 3438 
z
" transform="scale(0.015625)"/>
        <path id="DejaVuSans-31" d="M 794 531 
L 1825 531 
L 1825 4091 
L 703 3866 
L 703 4441 
L 1819 4666 
L 2450 4666 
L 2450 531 
L 3481 531 
L 3481 0 
L 794 0 
L 794 531 
z
" transform="scale(0.015625)"/>
        <path id="DejaVuSans-2077" d="M 338 4697 
L 2266 4697 
L 2266 4547 
L 1178 2088 
L 753 2088 
L 1778 4400 
L 338 4400 
L 338 4697 
z
" transform="scale(0.015625)"/>
       </defs>
       <use xlink:href="#DejaVuSans-32"/>
       <use xlink:href="#DejaVuSans-d7" x="63.623047"/>
       <use xlink:href="#DejaVuSans-31" x="147.412109"/>
       <use xlink:href="#DejaVuSans-30" x="211.035156"/>
       <use xlink:href="#DejaVuSans-2077" x="274.658203"/>
      </g>
     </g>
    </g>
    <g id="xtick_3">
     <g id="line2d_3">
      <g>
       <use xlink:href="#ma5c0a172d9" x="316.752078" y="217.909" style="stroke: #000000; stroke-width: 0.8"/>
      </g>
     </g>
     <g id="text_3">
      <!-- 4×10⁷ -->
      <g transform="translate(291.570828 237.0665) scale(0.16 -0.16)">
       <defs>
        <path id="DejaVuSans-34" d="M 2419 4116 
L 825 1625 
L 2419 1625 
L 2419 4116 
z
M 2253 4666 
L 3047 4666 
L 3047 1625 
L 3713 1625 
L 3713 1100 
L 3047 1100 
L 3047 0 
L 2419 0 
L 2419 1100 
L 313 1100 
L 313 1709 
L 2253 4666 
z
" transform="scale(0.015625)"/>
       </defs>
       <use xlink:href="#DejaVuSans-34"/>
       <use xlink:href="#DejaVuSans-d7" x="63.623047"/>
       <use xlink:href="#DejaVuSans-31" x="147.412109"/>
       <use xlink:href="#DejaVuSans-30" x="211.035156"/>
       <use xlink:href="#DejaVuSans-2077" x="274.658203"/>
      </g>
     </g>
    </g>
    <g id="text_4">
     <!-- Cumulative Parameters -->
     <g transform="translate(159.648 256.5515) scale(0.16 -0.16)">
      <defs>
       <path id="DejaVuSans-43" d="M 4122 4306 
L 4122 3641 
Q 3803 3938 3442 4084 
Q 3081 4231 2675 4231 
Q 1875 4231 1450 3742 
Q 1025 3253 1025 2328 
Q 1025 1406 1450 917 
Q 1875 428 2675 428 
Q 3081 428 3442 575 
Q 3803 722 4122 1019 
L 4122 359 
Q 3791 134 3420 21 
Q 3050 -91 2638 -91 
Q 1578 -91 968 557 
Q 359 1206 359 2328 
Q 359 3453 968 4101 
Q 1578 4750 2638 4750 
Q 3056 4750 3426 4639 
Q 3797 4528 4122 4306 
z
" transform="scale(0.015625)"/>
       <path id="DejaVuSans-75" d="M 544 1381 
L 544 3500 
L 1119 3500 
L 1119 1403 
Q 1119 906 1312 657 
Q 1506 409 1894 409 
Q 2359 409 2629 706 
Q 2900 1003 2900 1516 
L 2900 3500 
L 3475 3500 
L 3475 0 
L 2900 0 
L 2900 538 
Q 2691 219 2414 64 
Q 2138 -91 1772 -91 
Q 1169 -91 856 284 
Q 544 659 544 1381 
z
M 1991 3584 
L 1991 3584 
z
" transform="scale(0.015625)"/>
       <path id="DejaVuSans-6d" d="M 3328 2828 
Q 3544 3216 3844 3400 
Q 4144 3584 4550 3584 
Q 5097 3584 5394 3201 
Q 5691 2819 5691 2113 
L 5691 0 
L 5113 0 
L 5113 2094 
Q 5113 2597 4934 2840 
Q 4756 3084 4391 3084 
Q 3944 3084 3684 2787 
Q 3425 2491 3425 1978 
L 3425 0 
L 2847 0 
L 2847 2094 
Q 2847 2600 2669 2842 
Q 2491 3084 2119 3084 
Q 1678 3084 1418 2786 
Q 1159 2488 1159 1978 
L 1159 0 
L 581 0 
L 581 3500 
L 1159 3500 
L 1159 2956 
Q 1356 3278 1631 3431 
Q 1906 3584 2284 3584 
Q 2666 3584 2933 3390 
Q 3200 3197 3328 2828 
z
" transform="scale(0.015625)"/>
       <path id="DejaVuSans-6c" d="M 603 4863 
L 1178 4863 
L 1178 0 
L 603 0 
L 603 4863 
z
" transform="scale(0.015625)"/>
       <path id="DejaVuSans-61" d="M 2194 1759 
Q 1497 1759 1228 1600 
Q 959 1441 959 1056 
Q 959 750 1161 570 
Q 1363 391 1709 391 
Q 2188 391 2477 730 
Q 2766 1069 2766 1631 
L 2766 1759 
L 2194 1759 
z
M 3341 1997 
L 3341 0 
L 2766 0 
L 2766 531 
Q 2569 213 2275 61 
Q 1981 -91 1556 -91 
Q 1019 -91 701 211 
Q 384 513 384 1019 
Q 384 1609 779 1909 
Q 1175 2209 1959 2209 
L 2766 2209 
L 2766 2266 
Q 2766 2663 2505 2880 
Q 2244 3097 1772 3097 
Q 1472 3097 1187 3025 
Q 903 2953 641 2809 
L 641 3341 
Q 956 3463 1253 3523 
Q 1550 3584 1831 3584 
Q 2591 3584 2966 3190 
Q 3341 2797 3341 1997 
z
" transform="scale(0.015625)"/>
       <path id="DejaVuSans-74" d="M 1172 4494 
L 1172 3500 
L 2356 3500 
L 2356 3053 
L 1172 3053 
L 1172 1153 
Q 1172 725 1289 603 
Q 1406 481 1766 481 
L 2356 481 
L 2356 0 
L 1766 0 
Q 1100 0 847 248 
Q 594 497 594 1153 
L 594 3053 
L 172 3053 
L 172 3500 
L 594 3500 
L 594 4494 
L 1172 4494 
z
" transform="scale(0.015625)"/>
       <path id="DejaVuSans-69" d="M 603 3500 
L 1178 3500 
L 1178 0 
L 603 0 
L 603 3500 
z
M 603 4863 
L 1178 4863 
L 1178 4134 
L 603 4134 
L 603 4863 
z
" transform="scale(0.015625)"/>
       <path id="DejaVuSans-76" d="M 191 3500 
L 800 3500 
L 1894 563 
L 2988 3500 
L 3597 3500 
L 2284 0 
L 1503 0 
L 191 3500 
z
" transform="scale(0.015625)"/>
       <path id="DejaVuSans-65" d="M 3597 1894 
L 3597 1613 
L 953 1613 
Q 991 1019 1311 708 
Q 1631 397 2203 397 
Q 2534 397 2845 478 
Q 3156 559 3463 722 
L 3463 178 
Q 3153 47 2828 -22 
Q 2503 -91 2169 -91 
Q 1331 -91 842 396 
Q 353 884 353 1716 
Q 353 2575 817 3079 
Q 1281 3584 2069 3584 
Q 2775 3584 3186 3129 
Q 3597 2675 3597 1894 
z
M 3022 2063 
Q 3016 2534 2758 2815 
Q 2500 3097 2075 3097 
Q 1594 3097 1305 2825 
Q 1016 2553 972 2059 
L 3022 2063 
z
" transform="scale(0.015625)"/>
       <path id="DejaVuSans-20" transform="scale(0.015625)"/>
       <path id="DejaVuSans-50" d="M 1259 4147 
L 1259 2394 
L 2053 2394 
Q 2494 2394 2734 2622 
Q 2975 2850 2975 3272 
Q 2975 3691 2734 3919 
Q 2494 4147 2053 4147 
L 1259 4147 
z
M 628 4666 
L 2053 4666 
Q 2838 4666 3239 4311 
Q 3641 3956 3641 3272 
Q 3641 2581 3239 2228 
Q 2838 1875 2053 1875 
L 1259 1875 
L 1259 0 
L 628 0 
L 628 4666 
z
" transform="scale(0.015625)"/>
       <path id="DejaVuSans-72" d="M 2631 2963 
Q 2534 3019 2420 3045 
Q 2306 3072 2169 3072 
Q 1681 3072 1420 2755 
Q 1159 2438 1159 1844 
L 1159 0 
L 581 0 
L 581 3500 
L 1159 3500 
L 1159 2956 
Q 1341 3275 1631 3429 
Q 1922 3584 2338 3584 
Q 2397 3584 2469 3576 
Q 2541 3569 2628 3553 
L 2631 2963 
z
" transform="scale(0.015625)"/>
       <path id="DejaVuSans-73" d="M 2834 3397 
L 2834 2853 
Q 2591 2978 2328 3040 
Q 2066 3103 1784 3103 
Q 1356 3103 1142 2972 
Q 928 2841 928 2578 
Q 928 2378 1081 2264 
Q 1234 2150 1697 2047 
L 1894 2003 
Q 2506 1872 2764 1633 
Q 3022 1394 3022 966 
Q 3022 478 2636 193 
Q 2250 -91 1575 -91 
Q 1294 -91 989 -36 
Q 684 19 347 128 
L 347 722 
Q 666 556 975 473 
Q 1284 391 1588 391 
Q 1994 391 2212 530 
Q 2431 669 2431 922 
Q 2431 1156 2273 1281 
Q 2116 1406 1581 1522 
L 1381 1569 
Q 847 1681 609 1914 
Q 372 2147 372 2553 
Q 372 3047 722 3315 
Q 1072 3584 1716 3584 
Q 2034 3584 2315 3537 
Q 2597 3491 2834 3397 
z
" transform="scale(0.015625)"/>
      </defs>
      <use xlink:href="#DejaVuSans-43"/>
      <use xlink:href="#DejaVuSans-75" x="69.824219"/>
      <use xlink:href="#DejaVuSans-6d" x="133.203125"/>
      <use xlink:href="#DejaVuSans-75" x="230.615234"/>
      <use xlink:href="#DejaVuSans-6c" x="293.994141"/>
      <use xlink:href="#DejaVuSans-61" x="321.777344"/>
      <use xlink:href="#DejaVuSans-74" x="383.056641"/>
      <use xlink:href="#DejaVuSans-69" x="422.265625"/>
      <use xlink:href="#DejaVuSans-76" x="450.048828"/>
      <use xlink:href="#DejaVuSans-65" x="509.228516"/>
      <use xlink:href="#DejaVuSans-20" x="570.751953"/>
      <use xlink:href="#DejaVuSans-50" x="602.539062"/>
      <use xlink:href="#DejaVuSans-61" x="658.341797"/>
      <use xlink:href="#DejaVuSans-72" x="719.621094"/>
      <use xlink:href="#DejaVuSans-61" x="760.734375"/>
      <use xlink:href="#DejaVuSans-6d" x="822.013672"/>
      <use xlink:href="#DejaVuSans-65" x="919.425781"/>
      <use xlink:href="#DejaVuSans-74" x="980.949219"/>
      <use xlink:href="#DejaVuSans-65" x="1020.158203"/>
      <use xlink:href="#DejaVuSans-72" x="1081.681641"/>
      <use xlink:href="#DejaVuSans-73" x="1122.794922"/>
     </g>
    </g>
   </g>
   <g id="matplotlib.axis_2">
    <g id="ytick_1">
     <g id="line2d_4">
      <defs>
       <path id="md56d9d43da" d="M 0 0 
L -3.5 0 
" style="stroke: #000000; stroke-width: 0.8"/>
      </defs>
      <g>
       <use xlink:href="#md56d9d43da" x="81.058" y="217.909" style="stroke: #000000; stroke-width: 0.8"/>
      </g>
     </g>
     <g id="text_5">
      <!-- 0.0 -->
      <g transform="translate(48.613 223.98775) scale(0.16 -0.16)">
       <defs>
        <path id="DejaVuSans-2e" d="M 684 794 
L 1344 794 
L 1344 0 
L 684 0 
L 684 794 
z
" transform="scale(0.015625)"/>
       </defs>
       <use xlink:href="#DejaVuSans-30"/>
       <use xlink:href="#DejaVuSans-2e" x="63.623047"/>
       <use xlink:href="#DejaVuSans-30" x="95.410156"/>
      </g>
     </g>
    </g>
    <g id="ytick_2">
     <g id="line2d_5">
      <g>
       <use xlink:href="#md56d9d43da" x="81.058" y="41.789" style="stroke: #000000; stroke-width: 0.8"/>
      </g>
     </g>
     <g id="text_6">
      <!-- 0.1 -->
      <g transform="translate(48.613 47.86775) scale(0.16 -0.16)">
       <use xlink:href="#DejaVuSans-30"/>
       <use xlink:href="#DejaVuSans-2e" x="63.623047"/>
       <use xlink:href="#DejaVuSans-31" x="95.410156"/>
      </g>
     </g>
    </g>
    <g id="text_7">
     <!-- MSE Loss -->
     <g transform="translate(41.2855 166.97525) rotate(-90) scale(0.16 -0.16)">
      <defs>
       <path id="DejaVuSans-4d" d="M 628 4666 
L 1569 4666 
L 2759 1491 
L 3956 4666 
L 4897 4666 
L 4897 0 
L 4281 0 
L 4281 4097 
L 3078 897 
L 2444 897 
L 1241 4097 
L 1241 0 
L 628 0 
L 628 4666 
z
" transform="scale(0.015625)"/>
       <path id="DejaVuSans-53" d="M 3425 4513 
L 3425 3897 
Q 3066 4069 2747 4153 
Q 2428 4238 2131 4238 
Q 1616 4238 1336 4038 
Q 1056 3838 1056 3469 
Q 1056 3159 1242 3001 
Q 1428 2844 1947 2747 
L 2328 2669 
Q 3034 2534 3370 2195 
Q 3706 1856 3706 1288 
Q 3706 609 3251 259 
Q 2797 -91 1919 -91 
Q 1588 -91 1214 -16 
Q 841 59 441 206 
L 441 856 
Q 825 641 1194 531 
Q 1563 422 1919 422 
Q 2459 422 2753 634 
Q 3047 847 3047 1241 
Q 3047 1584 2836 1778 
Q 2625 1972 2144 2069 
L 1759 2144 
Q 1053 2284 737 2584 
Q 422 2884 422 3419 
Q 422 4038 858 4394 
Q 1294 4750 2059 4750 
Q 2388 4750 2728 4690 
Q 3069 4631 3425 4513 
z
" transform="scale(0.015625)"/>
       <path id="DejaVuSans-45" d="M 628 4666 
L 3578 4666 
L 3578 4134 
L 1259 4134 
L 1259 2753 
L 3481 2753 
L 3481 2222 
L 1259 2222 
L 1259 531 
L 3634 531 
L 3634 0 
L 628 0 
L 628 4666 
z
" transform="scale(0.015625)"/>
       <path id="DejaVuSans-4c" d="M 628 4666 
L 1259 4666 
L 1259 531 
L 3531 531 
L 3531 0 
L 628 0 
L 628 4666 
z
" transform="scale(0.015625)"/>
       <path id="DejaVuSans-6f" d="M 1959 3097 
Q 1497 3097 1228 2736 
Q 959 2375 959 1747 
Q 959 1119 1226 758 
Q 1494 397 1959 397 
Q 2419 397 2687 759 
Q 2956 1122 2956 1747 
Q 2956 2369 2687 2733 
Q 2419 3097 1959 3097 
z
M 1959 3584 
Q 2709 3584 3137 3096 
Q 3566 2609 3566 1747 
Q 3566 888 3137 398 
Q 2709 -91 1959 -91 
Q 1206 -91 779 398 
Q 353 888 353 1747 
Q 353 2609 779 3096 
Q 1206 3584 1959 3584 
z
" transform="scale(0.015625)"/>
      </defs>
      <use xlink:href="#DejaVuSans-4d"/>
      <use xlink:href="#DejaVuSans-53" x="86.279297"/>
      <use xlink:href="#DejaVuSans-45" x="149.755859"/>
      <use xlink:href="#DejaVuSans-20" x="212.939453"/>
      <use xlink:href="#DejaVuSans-4c" x="244.726562"/>
      <use xlink:href="#DejaVuSans-6f" x="298.689453"/>
      <use xlink:href="#DejaVuSans-73" x="359.871094"/>
      <use xlink:href="#DejaVuSans-73" x="411.970703"/>
     </g>
    </g>
   </g>
   <g id="line2d_6">
    <path d="M 96.787619 117.444111 
L 102.105268 160.438548 
L 107.422917 173.438732 
L 112.740566 179.971604 
L 118.058215 183.9389 
L 123.375864 186.518373 
L 128.693513 188.412406 
L 134.011162 189.855793 
L 139.328811 191.059903 
L 144.64646 192.045817 
L 149.964109 192.883447 
L 155.281758 193.62904 
L 160.599407 194.267224 
L 165.917056 194.827808 
L 171.234705 195.353708 
L 176.552354 195.809503 
L 181.870003 196.243484 
L 187.187652 196.628967 
L 192.505301 196.998055 
L 197.82295 197.323438 
L 203.140599 197.630409 
L 208.458248 197.905285 
L 213.775897 198.170758 
L 219.093546 198.40984 
L 224.411195 198.642954 
L 229.728844 198.85024 
L 235.046493 199.042179 
L 240.364142 199.223074 
L 245.681791 199.412442 
L 250.99944 199.571847 
L 256.317089 199.730232 
L 261.634738 199.879419 
L 266.952387 200.017775 
L 272.270036 200.153947 
L 277.587685 200.285751 
L 282.905334 200.410392 
L 288.222983 200.527254 
L 293.540631 200.64649 
L 298.85828 200.75878 
L 304.175929 200.867013 
L 309.493578 200.968166 
L 314.811227 201.075337 
L 320.128876 201.172927 
L 325.446525 201.264372 
L 330.764174 201.356666 
L 336.081823 201.44717 
L 341.399472 201.531023 
L 346.717121 201.609771 
L 352.03477 201.692121 
L 357.352419 201.762329 
L 362.670068 201.835547 
L 367.987717 201.905093 
L 373.305366 201.978365 
L 378.623015 202.039305 
L 383.940664 202.100843 
L 389.258313 202.167634 
L 394.575962 202.238273 
L 399.893611 202.28334 
L 405.21126 202.339299 
L 410.528909 202.39547 
" clip-path="url(#p9c72f21993)" style="fill: none; stroke: #0000ff; stroke-width: 2; stroke-linecap: square"/>
   </g>
   <g id="line2d_7">
    <path d="M 96.747091 50.215221 
L 102.024212 113.064981 
L 107.301332 136.498929 
L 112.578453 144.559712 
L 117.855574 148.969811 
L 123.141379 141.896578 
L 128.427185 158.664828 
L 133.71299 163.46719 
L 138.998795 166.366687 
L 144.284601 168.700221 
L 149.579091 169.647014 
L 154.873581 172.968015 
L 160.168071 175.850095 
L 165.462561 178.62067 
L 170.757051 180.785802 
L 176.05154 182.4554 
L 181.34603 183.814729 
L 186.6521 182.490645 
L 191.958169 185.763485 
L 197.264239 186.778326 
L 202.570308 187.799829 
L 207.876378 188.7989 
L 213.182447 189.755171 
L 218.488517 190.643782 
L 223.806166 188.489908 
L 229.123815 191.88703 
L 234.441464 192.63797 
L 239.759113 193.294354 
L 245.076762 193.903022 
L 250.394411 194.483197 
L 255.71206 195.04233 
L 261.029709 195.550122 
L 266.347358 196.028496 
L 271.665007 196.472883 
L 276.982656 196.882871 
L 282.300305 197.254368 
L 287.617954 197.60893 
L 292.935603 197.93292 
L 298.253252 198.234877 
L 303.570901 198.529484 
L 308.88855 198.794176 
L 314.206199 199.03816 
L 319.523848 199.265913 
L 324.841496 199.481353 
L 330.159145 199.680553 
L 335.476794 199.887664 
L 340.794443 200.076675 
L 346.112092 200.258162 
L 351.429741 200.417324 
L 356.74739 200.569153 
L 362.065039 200.72797 
L 367.382688 200.860066 
L 372.700337 200.997859 
L 378.017986 201.128211 
L 383.335635 201.244563 
L 388.653284 201.363814 
L 393.970933 201.473266 
L 399.288582 201.579159 
L 404.606231 201.684479 
L 409.92388 201.775112 
" clip-path="url(#p9c72f21993)" style="fill: none; stroke: #ff0000; stroke-width: 2; stroke-linecap: square"/>
   </g>
   <g id="patch_3">
    <path d="M 81.058 217.909 
L 81.058 41.789 
" style="fill: none; stroke: #000000; stroke-width: 0.8; stroke-linejoin: miter; stroke-linecap: square"/>
   </g>
   <g id="patch_4">
    <path d="M 81.058 217.909 
L 426.218 217.909 
" style="fill: none; stroke: #000000; stroke-width: 0.8; stroke-linejoin: miter; stroke-linecap: square"/>
   </g>
   <g id="text_8">
    <!-- Average Training Loss Over Cumulative Parameters -->
    <g transform="translate(7.2 21.789) scale(0.192 -0.192)">
     <defs>
      <path id="DejaVuSans-41" d="M 2188 4044 
L 1331 1722 
L 3047 1722 
L 2188 4044 
z
M 1831 4666 
L 2547 4666 
L 4325 0 
L 3669 0 
L 3244 1197 
L 1141 1197 
L 716 0 
L 50 0 
L 1831 4666 
z
" transform="scale(0.015625)"/>
      <path id="DejaVuSans-67" d="M 2906 1791 
Q 2906 2416 2648 2759 
Q 2391 3103 1925 3103 
Q 1463 3103 1205 2759 
Q 947 2416 947 1791 
Q 947 1169 1205 825 
Q 1463 481 1925 481 
Q 2391 481 2648 825 
Q 2906 1169 2906 1791 
z
M 3481 434 
Q 3481 -459 3084 -895 
Q 2688 -1331 1869 -1331 
Q 1566 -1331 1297 -1286 
Q 1028 -1241 775 -1147 
L 775 -588 
Q 1028 -725 1275 -790 
Q 1522 -856 1778 -856 
Q 2344 -856 2625 -561 
Q 2906 -266 2906 331 
L 2906 616 
Q 2728 306 2450 153 
Q 2172 0 1784 0 
Q 1141 0 747 490 
Q 353 981 353 1791 
Q 353 2603 747 3093 
Q 1141 3584 1784 3584 
Q 2172 3584 2450 3431 
Q 2728 3278 2906 2969 
L 2906 3500 
L 3481 3500 
L 3481 434 
z
" transform="scale(0.015625)"/>
      <path id="DejaVuSans-54" d="M -19 4666 
L 3928 4666 
L 3928 4134 
L 2272 4134 
L 2272 0 
L 1638 0 
L 1638 4134 
L -19 4134 
L -19 4666 
z
" transform="scale(0.015625)"/>
      <path id="DejaVuSans-6e" d="M 3513 2113 
L 3513 0 
L 2938 0 
L 2938 2094 
Q 2938 2591 2744 2837 
Q 2550 3084 2163 3084 
Q 1697 3084 1428 2787 
Q 1159 2491 1159 1978 
L 1159 0 
L 581 0 
L 581 3500 
L 1159 3500 
L 1159 2956 
Q 1366 3272 1645 3428 
Q 1925 3584 2291 3584 
Q 2894 3584 3203 3211 
Q 3513 2838 3513 2113 
z
" transform="scale(0.015625)"/>
      <path id="DejaVuSans-4f" d="M 2522 4238 
Q 1834 4238 1429 3725 
Q 1025 3213 1025 2328 
Q 1025 1447 1429 934 
Q 1834 422 2522 422 
Q 3209 422 3611 934 
Q 4013 1447 4013 2328 
Q 4013 3213 3611 3725 
Q 3209 4238 2522 4238 
z
M 2522 4750 
Q 3503 4750 4090 4092 
Q 4678 3434 4678 2328 
Q 4678 1225 4090 567 
Q 3503 -91 2522 -91 
Q 1538 -91 948 565 
Q 359 1222 359 2328 
Q 359 3434 948 4092 
Q 1538 4750 2522 4750 
z
" transform="scale(0.015625)"/>
     </defs>
     <use xlink:href="#DejaVuSans-41"/>
     <use xlink:href="#DejaVuSans-76" x="62.533203"/>
     <use xlink:href="#DejaVuSans-65" x="121.712891"/>
     <use xlink:href="#DejaVuSans-72" x="183.236328"/>
     <use xlink:href="#DejaVuSans-61" x="224.349609"/>
     <use xlink:href="#DejaVuSans-67" x="285.628906"/>
     <use xlink:href="#DejaVuSans-65" x="349.105469"/>
     <use xlink:href="#DejaVuSans-20" x="410.628906"/>
     <use xlink:href="#DejaVuSans-54" x="442.416016"/>
     <use xlink:href="#DejaVuSans-72" x="488.75"/>
     <use xlink:href="#DejaVuSans-61" x="529.863281"/>
     <use xlink:href="#DejaVuSans-69" x="591.142578"/>
     <use xlink:href="#DejaVuSans-6e" x="618.925781"/>
     <use xlink:href="#DejaVuSans-69" x="682.304688"/>
     <use xlink:href="#DejaVuSans-6e" x="710.087891"/>
     <use xlink:href="#DejaVuSans-67" x="773.466797"/>
     <use xlink:href="#DejaVuSans-20" x="836.943359"/>
     <use xlink:href="#DejaVuSans-4c" x="868.730469"/>
     <use xlink:href="#DejaVuSans-6f" x="922.693359"/>
     <use xlink:href="#DejaVuSans-73" x="983.875"/>
     <use xlink:href="#DejaVuSans-73" x="1035.974609"/>
     <use xlink:href="#DejaVuSans-20" x="1088.074219"/>
     <use xlink:href="#DejaVuSans-4f" x="1119.861328"/>
     <use xlink:href="#DejaVuSans-76" x="1198.572266"/>
     <use xlink:href="#DejaVuSans-65" x="1257.751953"/>
     <use xlink:href="#DejaVuSans-72" x="1319.275391"/>
     <use xlink:href="#DejaVuSans-20" x="1360.388672"/>
     <use xlink:href="#DejaVuSans-43" x="1392.175781"/>
     <use xlink:href="#DejaVuSans-75" x="1462"/>
     <use xlink:href="#DejaVuSans-6d" x="1525.378906"/>
     <use xlink:href="#DejaVuSans-75" x="1622.791016"/>
     <use xlink:href="#DejaVuSans-6c" x="1686.169922"/>
     <use xlink:href="#DejaVuSans-61" x="1713.953125"/>
     <use xlink:href="#DejaVuSans-74" x="1775.232422"/>
     <use xlink:href="#DejaVuSans-69" x="1814.441406"/>
     <use xlink:href="#DejaVuSans-76" x="1842.224609"/>
     <use xlink:href="#DejaVuSans-65" x="1901.404297"/>
     <use xlink:href="#DejaVuSans-20" x="1962.927734"/>
     <use xlink:href="#DejaVuSans-50" x="1994.714844"/>
     <use xlink:href="#DejaVuSans-61" x="2050.517578"/>
     <use xlink:href="#DejaVuSans-72" x="2111.796875"/>
     <use xlink:href="#DejaVuSans-61" x="2152.910156"/>
     <use xlink:href="#DejaVuSans-6d" x="2214.189453"/>
     <use xlink:href="#DejaVuSans-65" x="2311.601562"/>
     <use xlink:href="#DejaVuSans-74" x="2373.125"/>
     <use xlink:href="#DejaVuSans-65" x="2412.333984"/>
     <use xlink:href="#DejaVuSans-72" x="2473.857422"/>
     <use xlink:href="#DejaVuSans-73" x="2514.970703"/>
    </g>
   </g>
   <g id="legend_1">
    <g id="patch_5">
     <path d="M 306.1355 101.559 
L 415.018 101.559 
Q 418.218 101.559 418.218 98.359 
L 418.218 52.989 
Q 418.218 49.789 415.018 49.789 
L 306.1355 49.789 
Q 302.9355 49.789 302.9355 52.989 
L 302.9355 98.359 
Q 302.9355 101.559 306.1355 101.559 
z
" style="fill: #ffffff; opacity: 0.8; stroke: #cccccc; stroke-linejoin: miter"/>
    </g>
    <g id="line2d_8">
     <path d="M 309.3355 62.7465 
L 325.3355 62.7465 
L 341.3355 62.7465 
" style="fill: none; stroke: #0000ff; stroke-width: 2; stroke-linecap: square"/>
    </g>
    <g id="text_9">
     <!-- AE -->
     <g transform="translate(354.1355 68.3465) scale(0.16 -0.16)">
      <use xlink:href="#DejaVuSans-41"/>
      <use xlink:href="#DejaVuSans-45" x="68.408203"/>
     </g>
    </g>
    <g id="line2d_9">
     <path d="M 309.3355 86.2315 
L 325.3355 86.2315 
L 341.3355 86.2315 
" style="fill: none; stroke: #ff0000; stroke-width: 2; stroke-linecap: square"/>
    </g>
    <g id="text_10">
     <!-- Dev-AE -->
     <g transform="translate(354.1355 91.8315) scale(0.16 -0.16)">
      <defs>
       <path id="DejaVuSans-44" d="M 1259 4147 
L 1259 519 
L 2022 519 
Q 2988 519 3436 956 
Q 3884 1394 3884 2338 
Q 3884 3275 3436 3711 
Q 2988 4147 2022 4147 
L 1259 4147 
z
M 628 4666 
L 1925 4666 
Q 3281 4666 3915 4102 
Q 4550 3538 4550 2338 
Q 4550 1131 3912 565 
Q 3275 0 1925 0 
L 628 0 
L 628 4666 
z
" transform="scale(0.015625)"/>
       <path id="DejaVuSans-2d" d="M 313 2009 
L 1997 2009 
L 1997 1497 
L 313 1497 
L 313 2009 
z
" transform="scale(0.015625)"/>
      </defs>
      <use xlink:href="#DejaVuSans-44"/>
      <use xlink:href="#DejaVuSans-65" x="77.001953"/>
      <use xlink:href="#DejaVuSans-76" x="138.525391"/>
      <use xlink:href="#DejaVuSans-2d" x="195.080078"/>
      <use xlink:href="#DejaVuSans-41" x="228.914062"/>
      <use xlink:href="#DejaVuSans-45" x="297.322266"/>
     </g>
    </g>
   </g>
  </g>
 </g>
 <defs>
  <clipPath id="p9c72f21993">
   <rect x="81.058" y="41.789" width="345.16" height="176.12"/>
  </clipPath>
 </defs>
</svg>
