<?xml version="1.0" encoding="utf-8" standalone="no"?>
<!DOCTYPE svg PUBLIC "-//W3C//DTD SVG 1.1//EN"
  "http://www.w3.org/Graphics/SVG/1.1/DTD/svg11.dtd">
<svg xmlns:xlink="http://www.w3.org/1999/xlink" width="411.49pt" height="267.079pt" viewBox="0 0 411.49 267.079" xmlns="http://www.w3.org/2000/svg" version="1.1">
 <metadata>
  <rdf:RDF xmlns:dc="http://purl.org/dc/elements/1.1/" xmlns:cc="http://creativecommons.org/ns#" xmlns:rdf="http://www.w3.org/1999/02/22-rdf-syntax-ns#">
   <cc:Work>
    <dc:type rdf:resource="http://purl.org/dc/dcmitype/StillImage"/>
    <dc:date>2025-02-14T01:08:52.335306</dc:date>
    <dc:format>image/svg+xml</dc:format>
    <dc:creator>
     <cc:Agent>
      <dc:title>Matplotlib v3.9.2, https://matplotlib.org/</dc:title>
     </cc:Agent>
    </dc:creator>
   </cc:Work>
  </rdf:RDF>
 </metadata>
 <defs>
  <style type="text/css">*{stroke-linejoin: round; stroke-linecap: butt}</style>
 </defs>
 <g id="figure_1">
  <g id="patch_1">
   <path d="M 0 267.079 
L 411.49 267.079 
L 411.49 0 
L 0 0 
z
" style="fill: #ffffff"/>
  </g>
  <g id="axes_1">
   <g id="patch_2">
    <path d="M 59.13 217.909 
L 404.29 217.909 
L 404.29 41.789 
L 59.13 41.789 
z
" style="fill: #ffffff"/>
   </g>
   <g id="PolyCollection_1">
    <defs>
     <path id="me4fab5753a" d="M 74.819091 -151.576698 
L 74.819091 -147.693079 
L 80.137427 -105.280212 
L 85.455763 -92.680951 
L 90.774099 -86.318856 
L 96.092435 -82.351704 
L 101.41077 -79.826869 
L 106.729106 -77.93696 
L 112.047442 -76.489345 
L 117.365778 -75.285559 
L 122.684114 -74.326256 
L 128.00245 -73.505868 
L 133.320786 -72.767344 
L 138.639122 -72.133809 
L 143.957458 -71.601161 
L 149.275794 -71.085891 
L 154.594129 -70.624004 
L 159.912465 -70.205583 
L 165.230801 -69.831638 
L 170.549137 -69.465653 
L 175.867473 -69.164026 
L 181.185809 -68.863829 
L 186.504145 -68.592624 
L 191.822481 -68.334069 
L 197.140817 -68.099141 
L 202.459153 -67.86224 
L 207.777488 -67.653324 
L 213.095824 -67.450486 
L 218.41416 -67.271673 
L 223.732496 -67.080852 
L 229.050832 -66.916123 
L 234.369168 -66.751988 
L 239.687504 -66.593353 
L 245.00584 -66.463784 
L 250.324176 -66.318003 
L 255.642512 -66.199423 
L 260.960847 -66.072269 
L 266.279183 -65.954585 
L 271.597519 -65.838252 
L 276.915855 -65.72736 
L 282.234191 -65.630893 
L 287.552527 -65.528974 
L 292.870863 -65.427588 
L 298.189199 -65.330894 
L 303.507535 -65.242319 
L 308.825871 -65.163045 
L 314.144206 -65.072814 
L 319.462542 -64.992633 
L 324.780878 -64.922476 
L 330.099214 -64.839145 
L 335.41755 -64.773858 
L 340.735886 -64.706172 
L 346.054222 -64.637498 
L 351.372558 -64.571417 
L 356.690894 -64.513195 
L 362.00923 -64.457148 
L 367.327565 -64.389135 
L 372.645901 -64.324073 
L 377.964237 -64.276222 
L 383.282573 -64.224693 
L 388.600909 -64.168556 
L 388.600909 -65.198505 
L 388.600909 -65.198505 
L 383.282573 -65.254709 
L 377.964237 -65.315099 
L 372.645901 -65.357381 
L 367.327565 -65.433596 
L 362.00923 -65.499166 
L 356.690894 -65.566194 
L 351.372558 -65.629853 
L 346.054222 -65.710316 
L 340.735886 -65.780734 
L 335.41755 -65.859483 
L 330.099214 -65.934612 
L 324.780878 -66.015983 
L 319.462542 -66.103321 
L 314.144206 -66.190846 
L 308.825871 -66.281622 
L 303.507535 -66.386937 
L 298.189199 -66.481251 
L 292.870863 -66.579738 
L 287.552527 -66.692694 
L 282.234191 -66.793081 
L 276.915855 -66.913079 
L 271.597519 -67.026768 
L 266.279183 -67.148907 
L 260.960847 -67.264946 
L 255.642512 -67.387075 
L 250.324176 -67.532103 
L 245.00584 -67.658665 
L 239.687504 -67.80581 
L 234.369168 -67.945547 
L 229.050832 -68.098183 
L 223.732496 -68.252264 
L 218.41416 -68.440179 
L 213.095824 -68.623157 
L 207.777488 -68.804196 
L 202.459153 -69.009852 
L 197.140817 -69.23918 
L 191.822481 -69.482415 
L 186.504145 -69.754807 
L 181.185809 -70.033354 
L 175.867473 -70.347098 
L 170.549137 -70.696237 
L 165.230801 -71.068427 
L 159.912465 -71.465448 
L 154.594129 -71.914989 
L 149.275794 -72.364693 
L 143.957458 -72.901223 
L 138.639122 -73.489743 
L 133.320786 -74.132576 
L 128.00245 -74.885238 
L 122.684114 -75.740111 
L 117.365778 -76.752634 
L 112.047442 -77.95707 
L 106.729106 -79.396228 
L 101.41077 -81.294384 
L 96.092435 -83.928497 
L 90.774099 -87.895936 
L 85.455763 -94.599585 
L 80.137427 -108.000691 
L 74.819091 -151.576698 
z
" style="stroke: #0000ff; stroke-opacity: 0.2"/>
    </defs>
    <g clip-path="url(#pd5a9c95d31)">
     <use xlink:href="#me4fab5753a" x="0" y="267.079" style="fill: #0000ff; fill-opacity: 0.2; stroke: #0000ff; stroke-opacity: 0.2"/>
    </g>
   </g>
   <g id="PolyCollection_2">
    <defs>
     <path id="mf8ca72f835" d="M 74.819091 -217.218386 
L 74.819091 -216.509173 
L 80.137427 -149.712667 
L 85.455763 -123.453009 
L 90.774099 -116.829937 
L 96.092435 -113.35515 
L 101.41077 -123.142569 
L 106.729106 -106.745602 
L 112.047442 -102.562741 
L 117.365778 -99.993822 
L 122.684114 -97.748849 
L 128.00245 -96.766171 
L 133.320786 -93.520017 
L 138.639122 -90.507546 
L 143.957458 -87.804209 
L 149.275794 -85.676857 
L 154.594129 -84.021445 
L 159.912465 -82.670507 
L 165.230801 -83.945458 
L 170.549137 -80.723447 
L 175.867473 -79.710164 
L 181.185809 -78.744618 
L 186.504145 -77.768079 
L 191.822481 -76.835595 
L 197.140817 -75.950309 
L 202.459153 -77.285772 
L 207.777488 -74.531579 
L 213.095824 -73.818498 
L 218.41416 -73.185198 
L 223.732496 -72.584651 
L 229.050832 -72.021968 
L 234.369168 -71.477972 
L 239.687504 -70.977418 
L 245.00584 -70.513982 
L 250.324176 -70.060873 
L 255.642512 -69.660457 
L 260.960847 -69.284873 
L 266.279183 -68.945579 
L 271.597519 -68.615541 
L 276.915855 -68.318761 
L 282.234191 -68.02174 
L 287.552527 -67.761591 
L 292.870863 -67.518534 
L 298.189199 -67.28561 
L 303.507535 -67.066586 
L 308.825871 -66.865443 
L 314.144206 -66.653129 
L 319.462542 -66.457562 
L 324.780878 -66.274348 
L 330.099214 -66.116842 
L 335.41755 -65.95837 
L 340.735886 -65.801661 
L 346.054222 -65.665277 
L 351.372558 -65.534128 
L 356.690894 -65.395703 
L 362.00923 -65.278451 
L 367.327565 -65.156707 
L 372.645901 -65.039014 
L 377.964237 -64.935131 
L 383.282573 -64.824554 
L 388.600909 -64.72949 
L 388.600909 -65.878287 
L 388.600909 -65.878287 
L 383.282573 -65.964487 
L 377.964237 -66.06455 
L 372.645901 -66.172454 
L 367.327565 -66.273665 
L 362.00923 -66.390423 
L 356.690894 -66.505875 
L 351.372558 -66.628153 
L 346.054222 -66.772592 
L 340.735886 -66.900399 
L 335.41755 -67.061323 
L 330.099214 -67.20651 
L 324.780878 -67.367328 
L 319.462542 -67.547088 
L 314.144206 -67.729544 
L 308.825871 -67.93145 
L 303.507535 -68.128709 
L 298.189199 -68.340563 
L 292.870863 -68.563147 
L 287.552527 -68.808058 
L 282.234191 -69.077291 
L 276.915855 -69.369486 
L 271.597519 -69.676619 
L 266.279183 -69.994561 
L 260.960847 -70.36439 
L 255.642512 -70.731801 
L 250.324176 -71.151362 
L 245.00584 -71.587025 
L 239.687504 -72.080338 
L 234.369168 -72.595367 
L 229.050832 -73.169639 
L 223.732496 -73.767306 
L 218.41416 -74.384094 
L 213.095824 -75.063562 
L 207.777488 -75.85236 
L 202.459153 -79.892412 
L 197.140817 -76.920126 
L 191.822481 -77.812063 
L 186.504145 -78.792122 
L 181.185809 -79.813723 
L 175.867473 -80.891184 
L 170.549137 -81.907583 
L 165.230801 -85.231252 
L 159.912465 -83.858035 
L 154.594129 -85.225754 
L 149.275794 -86.909538 
L 143.957458 -89.112451 
L 138.639122 -91.950264 
L 133.320786 -94.701952 
L 128.00245 -98.097801 
L 122.684114 -99.008709 
L 117.365778 -101.430805 
L 112.047442 -104.660879 
L 106.729106 -110.082742 
L 101.41077 -127.222276 
L 96.092435 -122.863229 
L 90.774099 -128.208638 
L 85.455763 -137.707134 
L 80.137427 -158.315372 
L 74.819091 -217.218386 
z
" style="stroke: #ff0000; stroke-opacity: 0.2"/>
    </defs>
    <g clip-path="url(#pd5a9c95d31)">
     <use xlink:href="#mf8ca72f835" x="0" y="267.079" style="fill: #ff0000; fill-opacity: 0.2; stroke: #ff0000; stroke-opacity: 0.2"/>
    </g>
   </g>
   <g id="matplotlib.axis_1">
    <g id="xtick_1">
     <g id="line2d_1">
      <defs>
       <path id="maddf291db3" d="M 0 0 
L 0 3.5 
" style="stroke: #000000; stroke-width: 0.8"/>
      </defs>
      <g>
       <use xlink:href="#maddf291db3" x="74.819091" y="217.909" style="stroke: #000000; stroke-width: 0.8"/>
      </g>
     </g>
     <g id="text_1">
      <!-- 1 -->
      <g transform="translate(69.729091 237.0665) scale(0.16 -0.16)">
       <defs>
        <path id="DejaVuSans-31" d="M 794 531 
L 1825 531 
L 1825 4091 
L 703 3866 
L 703 4441 
L 1819 4666 
L 2450 4666 
L 2450 531 
L 3481 531 
L 3481 0 
L 794 0 
L 794 531 
z
" transform="scale(0.015625)"/>
       </defs>
       <use xlink:href="#DejaVuSans-31"/>
      </g>
     </g>
    </g>
    <g id="xtick_2">
     <g id="line2d_2">
      <g>
       <use xlink:href="#maddf291db3" x="229.050832" y="217.909" style="stroke: #000000; stroke-width: 0.8"/>
      </g>
     </g>
     <g id="text_2">
      <!-- 30 -->
      <g transform="translate(218.870832 237.0665) scale(0.16 -0.16)">
       <defs>
        <path id="DejaVuSans-33" d="M 2597 2516 
Q 3050 2419 3304 2112 
Q 3559 1806 3559 1356 
Q 3559 666 3084 287 
Q 2609 -91 1734 -91 
Q 1441 -91 1130 -33 
Q 819 25 488 141 
L 488 750 
Q 750 597 1062 519 
Q 1375 441 1716 441 
Q 2309 441 2620 675 
Q 2931 909 2931 1356 
Q 2931 1769 2642 2001 
Q 2353 2234 1838 2234 
L 1294 2234 
L 1294 2753 
L 1863 2753 
Q 2328 2753 2575 2939 
Q 2822 3125 2822 3475 
Q 2822 3834 2567 4026 
Q 2313 4219 1838 4219 
Q 1578 4219 1281 4162 
Q 984 4106 628 3988 
L 628 4550 
Q 988 4650 1302 4700 
Q 1616 4750 1894 4750 
Q 2613 4750 3031 4423 
Q 3450 4097 3450 3541 
Q 3450 3153 3228 2886 
Q 3006 2619 2597 2516 
z
" transform="scale(0.015625)"/>
        <path id="DejaVuSans-30" d="M 2034 4250 
Q 1547 4250 1301 3770 
Q 1056 3291 1056 2328 
Q 1056 1369 1301 889 
Q 1547 409 2034 409 
Q 2525 409 2770 889 
Q 3016 1369 3016 2328 
Q 3016 3291 2770 3770 
Q 2525 4250 2034 4250 
z
M 2034 4750 
Q 2819 4750 3233 4129 
Q 3647 3509 3647 2328 
Q 3647 1150 3233 529 
Q 2819 -91 2034 -91 
Q 1250 -91 836 529 
Q 422 1150 422 2328 
Q 422 3509 836 4129 
Q 1250 4750 2034 4750 
z
" transform="scale(0.015625)"/>
       </defs>
       <use xlink:href="#DejaVuSans-33"/>
       <use xlink:href="#DejaVuSans-30" x="63.623047"/>
      </g>
     </g>
    </g>
    <g id="xtick_3">
     <g id="line2d_3">
      <g>
       <use xlink:href="#maddf291db3" x="388.600909" y="217.909" style="stroke: #000000; stroke-width: 0.8"/>
      </g>
     </g>
     <g id="text_3">
      <!-- 60 -->
      <g transform="translate(378.420909 237.0665) scale(0.16 -0.16)">
       <defs>
        <path id="DejaVuSans-36" d="M 2113 2584 
Q 1688 2584 1439 2293 
Q 1191 2003 1191 1497 
Q 1191 994 1439 701 
Q 1688 409 2113 409 
Q 2538 409 2786 701 
Q 3034 994 3034 1497 
Q 3034 2003 2786 2293 
Q 2538 2584 2113 2584 
z
M 3366 4563 
L 3366 3988 
Q 3128 4100 2886 4159 
Q 2644 4219 2406 4219 
Q 1781 4219 1451 3797 
Q 1122 3375 1075 2522 
Q 1259 2794 1537 2939 
Q 1816 3084 2150 3084 
Q 2853 3084 3261 2657 
Q 3669 2231 3669 1497 
Q 3669 778 3244 343 
Q 2819 -91 2113 -91 
Q 1303 -91 875 529 
Q 447 1150 447 2328 
Q 447 3434 972 4092 
Q 1497 4750 2381 4750 
Q 2619 4750 2861 4703 
Q 3103 4656 3366 4563 
z
" transform="scale(0.015625)"/>
       </defs>
       <use xlink:href="#DejaVuSans-36"/>
       <use xlink:href="#DejaVuSans-30" x="63.623047"/>
      </g>
     </g>
    </g>
    <g id="text_4">
     <!-- Epochs Trained -->
     <g transform="translate(171.31125 256.5515) scale(0.16 -0.16)">
      <defs>
       <path id="DejaVuSans-45" d="M 628 4666 
L 3578 4666 
L 3578 4134 
L 1259 4134 
L 1259 2753 
L 3481 2753 
L 3481 2222 
L 1259 2222 
L 1259 531 
L 3634 531 
L 3634 0 
L 628 0 
L 628 4666 
z
" transform="scale(0.015625)"/>
       <path id="DejaVuSans-70" d="M 1159 525 
L 1159 -1331 
L 581 -1331 
L 581 3500 
L 1159 3500 
L 1159 2969 
Q 1341 3281 1617 3432 
Q 1894 3584 2278 3584 
Q 2916 3584 3314 3078 
Q 3713 2572 3713 1747 
Q 3713 922 3314 415 
Q 2916 -91 2278 -91 
Q 1894 -91 1617 61 
Q 1341 213 1159 525 
z
M 3116 1747 
Q 3116 2381 2855 2742 
Q 2594 3103 2138 3103 
Q 1681 3103 1420 2742 
Q 1159 2381 1159 1747 
Q 1159 1113 1420 752 
Q 1681 391 2138 391 
Q 2594 391 2855 752 
Q 3116 1113 3116 1747 
z
" transform="scale(0.015625)"/>
       <path id="DejaVuSans-6f" d="M 1959 3097 
Q 1497 3097 1228 2736 
Q 959 2375 959 1747 
Q 959 1119 1226 758 
Q 1494 397 1959 397 
Q 2419 397 2687 759 
Q 2956 1122 2956 1747 
Q 2956 2369 2687 2733 
Q 2419 3097 1959 3097 
z
M 1959 3584 
Q 2709 3584 3137 3096 
Q 3566 2609 3566 1747 
Q 3566 888 3137 398 
Q 2709 -91 1959 -91 
Q 1206 -91 779 398 
Q 353 888 353 1747 
Q 353 2609 779 3096 
Q 1206 3584 1959 3584 
z
" transform="scale(0.015625)"/>
       <path id="DejaVuSans-63" d="M 3122 3366 
L 3122 2828 
Q 2878 2963 2633 3030 
Q 2388 3097 2138 3097 
Q 1578 3097 1268 2742 
Q 959 2388 959 1747 
Q 959 1106 1268 751 
Q 1578 397 2138 397 
Q 2388 397 2633 464 
Q 2878 531 3122 666 
L 3122 134 
Q 2881 22 2623 -34 
Q 2366 -91 2075 -91 
Q 1284 -91 818 406 
Q 353 903 353 1747 
Q 353 2603 823 3093 
Q 1294 3584 2113 3584 
Q 2378 3584 2631 3529 
Q 2884 3475 3122 3366 
z
" transform="scale(0.015625)"/>
       <path id="DejaVuSans-68" d="M 3513 2113 
L 3513 0 
L 2938 0 
L 2938 2094 
Q 2938 2591 2744 2837 
Q 2550 3084 2163 3084 
Q 1697 3084 1428 2787 
Q 1159 2491 1159 1978 
L 1159 0 
L 581 0 
L 581 4863 
L 1159 4863 
L 1159 2956 
Q 1366 3272 1645 3428 
Q 1925 3584 2291 3584 
Q 2894 3584 3203 3211 
Q 3513 2838 3513 2113 
z
" transform="scale(0.015625)"/>
       <path id="DejaVuSans-73" d="M 2834 3397 
L 2834 2853 
Q 2591 2978 2328 3040 
Q 2066 3103 1784 3103 
Q 1356 3103 1142 2972 
Q 928 2841 928 2578 
Q 928 2378 1081 2264 
Q 1234 2150 1697 2047 
L 1894 2003 
Q 2506 1872 2764 1633 
Q 3022 1394 3022 966 
Q 3022 478 2636 193 
Q 2250 -91 1575 -91 
Q 1294 -91 989 -36 
Q 684 19 347 128 
L 347 722 
Q 666 556 975 473 
Q 1284 391 1588 391 
Q 1994 391 2212 530 
Q 2431 669 2431 922 
Q 2431 1156 2273 1281 
Q 2116 1406 1581 1522 
L 1381 1569 
Q 847 1681 609 1914 
Q 372 2147 372 2553 
Q 372 3047 722 3315 
Q 1072 3584 1716 3584 
Q 2034 3584 2315 3537 
Q 2597 3491 2834 3397 
z
" transform="scale(0.015625)"/>
       <path id="DejaVuSans-20" transform="scale(0.015625)"/>
       <path id="DejaVuSans-54" d="M -19 4666 
L 3928 4666 
L 3928 4134 
L 2272 4134 
L 2272 0 
L 1638 0 
L 1638 4134 
L -19 4134 
L -19 4666 
z
" transform="scale(0.015625)"/>
       <path id="DejaVuSans-72" d="M 2631 2963 
Q 2534 3019 2420 3045 
Q 2306 3072 2169 3072 
Q 1681 3072 1420 2755 
Q 1159 2438 1159 1844 
L 1159 0 
L 581 0 
L 581 3500 
L 1159 3500 
L 1159 2956 
Q 1341 3275 1631 3429 
Q 1922 3584 2338 3584 
Q 2397 3584 2469 3576 
Q 2541 3569 2628 3553 
L 2631 2963 
z
" transform="scale(0.015625)"/>
       <path id="DejaVuSans-61" d="M 2194 1759 
Q 1497 1759 1228 1600 
Q 959 1441 959 1056 
Q 959 750 1161 570 
Q 1363 391 1709 391 
Q 2188 391 2477 730 
Q 2766 1069 2766 1631 
L 2766 1759 
L 2194 1759 
z
M 3341 1997 
L 3341 0 
L 2766 0 
L 2766 531 
Q 2569 213 2275 61 
Q 1981 -91 1556 -91 
Q 1019 -91 701 211 
Q 384 513 384 1019 
Q 384 1609 779 1909 
Q 1175 2209 1959 2209 
L 2766 2209 
L 2766 2266 
Q 2766 2663 2505 2880 
Q 2244 3097 1772 3097 
Q 1472 3097 1187 3025 
Q 903 2953 641 2809 
L 641 3341 
Q 956 3463 1253 3523 
Q 1550 3584 1831 3584 
Q 2591 3584 2966 3190 
Q 3341 2797 3341 1997 
z
" transform="scale(0.015625)"/>
       <path id="DejaVuSans-69" d="M 603 3500 
L 1178 3500 
L 1178 0 
L 603 0 
L 603 3500 
z
M 603 4863 
L 1178 4863 
L 1178 4134 
L 603 4134 
L 603 4863 
z
" transform="scale(0.015625)"/>
       <path id="DejaVuSans-6e" d="M 3513 2113 
L 3513 0 
L 2938 0 
L 2938 2094 
Q 2938 2591 2744 2837 
Q 2550 3084 2163 3084 
Q 1697 3084 1428 2787 
Q 1159 2491 1159 1978 
L 1159 0 
L 581 0 
L 581 3500 
L 1159 3500 
L 1159 2956 
Q 1366 3272 1645 3428 
Q 1925 3584 2291 3584 
Q 2894 3584 3203 3211 
Q 3513 2838 3513 2113 
z
" transform="scale(0.015625)"/>
       <path id="DejaVuSans-65" d="M 3597 1894 
L 3597 1613 
L 953 1613 
Q 991 1019 1311 708 
Q 1631 397 2203 397 
Q 2534 397 2845 478 
Q 3156 559 3463 722 
L 3463 178 
Q 3153 47 2828 -22 
Q 2503 -91 2169 -91 
Q 1331 -91 842 396 
Q 353 884 353 1716 
Q 353 2575 817 3079 
Q 1281 3584 2069 3584 
Q 2775 3584 3186 3129 
Q 3597 2675 3597 1894 
z
M 3022 2063 
Q 3016 2534 2758 2815 
Q 2500 3097 2075 3097 
Q 1594 3097 1305 2825 
Q 1016 2553 972 2059 
L 3022 2063 
z
" transform="scale(0.015625)"/>
       <path id="DejaVuSans-64" d="M 2906 2969 
L 2906 4863 
L 3481 4863 
L 3481 0 
L 2906 0 
L 2906 525 
Q 2725 213 2448 61 
Q 2172 -91 1784 -91 
Q 1150 -91 751 415 
Q 353 922 353 1747 
Q 353 2572 751 3078 
Q 1150 3584 1784 3584 
Q 2172 3584 2448 3432 
Q 2725 3281 2906 2969 
z
M 947 1747 
Q 947 1113 1208 752 
Q 1469 391 1925 391 
Q 2381 391 2643 752 
Q 2906 1113 2906 1747 
Q 2906 2381 2643 2742 
Q 2381 3103 1925 3103 
Q 1469 3103 1208 2742 
Q 947 2381 947 1747 
z
" transform="scale(0.015625)"/>
      </defs>
      <use xlink:href="#DejaVuSans-45"/>
      <use xlink:href="#DejaVuSans-70" x="63.183594"/>
      <use xlink:href="#DejaVuSans-6f" x="126.660156"/>
      <use xlink:href="#DejaVuSans-63" x="187.841797"/>
      <use xlink:href="#DejaVuSans-68" x="242.822266"/>
      <use xlink:href="#DejaVuSans-73" x="306.201172"/>
      <use xlink:href="#DejaVuSans-20" x="358.300781"/>
      <use xlink:href="#DejaVuSans-54" x="390.087891"/>
      <use xlink:href="#DejaVuSans-72" x="436.421875"/>
      <use xlink:href="#DejaVuSans-61" x="477.535156"/>
      <use xlink:href="#DejaVuSans-69" x="538.814453"/>
      <use xlink:href="#DejaVuSans-6e" x="566.597656"/>
      <use xlink:href="#DejaVuSans-65" x="629.976562"/>
      <use xlink:href="#DejaVuSans-64" x="691.5"/>
     </g>
    </g>
   </g>
   <g id="matplotlib.axis_2">
    <g id="ytick_1">
     <g id="line2d_4">
      <defs>
       <path id="m438f382d29" d="M 0 0 
L -3.5 0 
" style="stroke: #000000; stroke-width: 0.8"/>
      </defs>
      <g>
       <use xlink:href="#m438f382d29" x="59.13" y="217.909" style="stroke: #000000; stroke-width: 0.8"/>
      </g>
     </g>
     <g id="text_5">
      <!-- 0.0 -->
      <g transform="translate(26.685 223.98775) scale(0.16 -0.16)">
       <defs>
        <path id="DejaVuSans-2e" d="M 684 794 
L 1344 794 
L 1344 0 
L 684 0 
L 684 794 
z
" transform="scale(0.015625)"/>
       </defs>
       <use xlink:href="#DejaVuSans-30"/>
       <use xlink:href="#DejaVuSans-2e" x="63.623047"/>
       <use xlink:href="#DejaVuSans-30" x="95.410156"/>
      </g>
     </g>
    </g>
    <g id="ytick_2">
     <g id="line2d_5">
      <g>
       <use xlink:href="#m438f382d29" x="59.13" y="41.789" style="stroke: #000000; stroke-width: 0.8"/>
      </g>
     </g>
     <g id="text_6">
      <!-- 0.1 -->
      <g transform="translate(26.685 47.86775) scale(0.16 -0.16)">
       <use xlink:href="#DejaVuSans-30"/>
       <use xlink:href="#DejaVuSans-2e" x="63.623047"/>
       <use xlink:href="#DejaVuSans-31" x="95.410156"/>
      </g>
     </g>
    </g>
    <g id="text_7">
     <!-- MSE Loss -->
     <g transform="translate(19.3575 166.97525) rotate(-90) scale(0.16 -0.16)">
      <defs>
       <path id="DejaVuSans-4d" d="M 628 4666 
L 1569 4666 
L 2759 1491 
L 3956 4666 
L 4897 4666 
L 4897 0 
L 4281 0 
L 4281 4097 
L 3078 897 
L 2444 897 
L 1241 4097 
L 1241 0 
L 628 0 
L 628 4666 
z
" transform="scale(0.015625)"/>
       <path id="DejaVuSans-53" d="M 3425 4513 
L 3425 3897 
Q 3066 4069 2747 4153 
Q 2428 4238 2131 4238 
Q 1616 4238 1336 4038 
Q 1056 3838 1056 3469 
Q 1056 3159 1242 3001 
Q 1428 2844 1947 2747 
L 2328 2669 
Q 3034 2534 3370 2195 
Q 3706 1856 3706 1288 
Q 3706 609 3251 259 
Q 2797 -91 1919 -91 
Q 1588 -91 1214 -16 
Q 841 59 441 206 
L 441 856 
Q 825 641 1194 531 
Q 1563 422 1919 422 
Q 2459 422 2753 634 
Q 3047 847 3047 1241 
Q 3047 1584 2836 1778 
Q 2625 1972 2144 2069 
L 1759 2144 
Q 1053 2284 737 2584 
Q 422 2884 422 3419 
Q 422 4038 858 4394 
Q 1294 4750 2059 4750 
Q 2388 4750 2728 4690 
Q 3069 4631 3425 4513 
z
" transform="scale(0.015625)"/>
       <path id="DejaVuSans-4c" d="M 628 4666 
L 1259 4666 
L 1259 531 
L 3531 531 
L 3531 0 
L 628 0 
L 628 4666 
z
" transform="scale(0.015625)"/>
      </defs>
      <use xlink:href="#DejaVuSans-4d"/>
      <use xlink:href="#DejaVuSans-53" x="86.279297"/>
      <use xlink:href="#DejaVuSans-45" x="149.755859"/>
      <use xlink:href="#DejaVuSans-20" x="212.939453"/>
      <use xlink:href="#DejaVuSans-4c" x="244.726562"/>
      <use xlink:href="#DejaVuSans-6f" x="298.689453"/>
      <use xlink:href="#DejaVuSans-73" x="359.871094"/>
      <use xlink:href="#DejaVuSans-73" x="411.970703"/>
     </g>
    </g>
   </g>
   <g id="line2d_6">
    <path d="M 74.819091 117.444111 
L 80.137427 160.438548 
L 85.455763 173.438732 
L 90.774099 179.971604 
L 96.092435 183.9389 
L 101.41077 186.518373 
L 106.729106 188.412406 
L 112.047442 189.855793 
L 117.365778 191.059903 
L 122.684114 192.045817 
L 128.00245 192.883447 
L 133.320786 193.62904 
L 138.639122 194.267224 
L 143.957458 194.827808 
L 149.275794 195.353708 
L 154.594129 195.809503 
L 159.912465 196.243484 
L 165.230801 196.628967 
L 170.549137 196.998055 
L 175.867473 197.323438 
L 181.185809 197.630409 
L 186.504145 197.905285 
L 191.822481 198.170758 
L 197.140817 198.40984 
L 202.459153 198.642954 
L 207.777488 198.85024 
L 213.095824 199.042179 
L 218.41416 199.223074 
L 223.732496 199.412442 
L 229.050832 199.571847 
L 234.369168 199.730232 
L 239.687504 199.879419 
L 245.00584 200.017775 
L 250.324176 200.153947 
L 255.642512 200.285751 
L 260.960847 200.410392 
L 266.279183 200.527254 
L 271.597519 200.64649 
L 276.915855 200.75878 
L 282.234191 200.867013 
L 287.552527 200.968166 
L 292.870863 201.075337 
L 298.189199 201.172927 
L 303.507535 201.264372 
L 308.825871 201.356666 
L 314.144206 201.44717 
L 319.462542 201.531023 
L 324.780878 201.609771 
L 330.099214 201.692121 
L 335.41755 201.762329 
L 340.735886 201.835547 
L 346.054222 201.905093 
L 351.372558 201.978365 
L 356.690894 202.039305 
L 362.00923 202.100843 
L 367.327565 202.167634 
L 372.645901 202.238273 
L 377.964237 202.28334 
L 383.282573 202.339299 
L 388.600909 202.39547 
" clip-path="url(#pd5a9c95d31)" style="fill: none; stroke: #0000ff; stroke-width: 2; stroke-linecap: square"/>
   </g>
   <g id="line2d_7">
    <path d="M 74.819091 50.215221 
L 80.137427 113.064981 
L 85.455763 136.498929 
L 90.774099 144.559712 
L 96.092435 148.969811 
L 101.41077 141.896578 
L 106.729106 158.664828 
L 112.047442 163.46719 
L 117.365778 166.366687 
L 122.684114 168.700221 
L 128.00245 169.647014 
L 133.320786 172.968015 
L 138.639122 175.850095 
L 143.957458 178.62067 
L 149.275794 180.785802 
L 154.594129 182.4554 
L 159.912465 183.814729 
L 165.230801 182.490645 
L 170.549137 185.763485 
L 175.867473 186.778326 
L 181.185809 187.799829 
L 186.504145 188.7989 
L 191.822481 189.755171 
L 197.140817 190.643782 
L 202.459153 188.489908 
L 207.777488 191.88703 
L 213.095824 192.63797 
L 218.41416 193.294354 
L 223.732496 193.903022 
L 229.050832 194.483197 
L 234.369168 195.04233 
L 239.687504 195.550122 
L 245.00584 196.028496 
L 250.324176 196.472883 
L 255.642512 196.882871 
L 260.960847 197.254368 
L 266.279183 197.60893 
L 271.597519 197.93292 
L 276.915855 198.234877 
L 282.234191 198.529484 
L 287.552527 198.794176 
L 292.870863 199.03816 
L 298.189199 199.265913 
L 303.507535 199.481353 
L 308.825871 199.680553 
L 314.144206 199.887664 
L 319.462542 200.076675 
L 324.780878 200.258162 
L 330.099214 200.417324 
L 335.41755 200.569153 
L 340.735886 200.72797 
L 346.054222 200.860066 
L 351.372558 200.997859 
L 356.690894 201.128211 
L 362.00923 201.244563 
L 367.327565 201.363814 
L 372.645901 201.473266 
L 377.964237 201.579159 
L 383.282573 201.684479 
L 388.600909 201.775112 
" clip-path="url(#pd5a9c95d31)" style="fill: none; stroke: #ff0000; stroke-width: 2; stroke-linecap: square"/>
   </g>
   <g id="patch_3">
    <path d="M 59.13 217.909 
L 59.13 41.789 
" style="fill: none; stroke: #000000; stroke-width: 0.8; stroke-linejoin: miter; stroke-linecap: square"/>
   </g>
   <g id="patch_4">
    <path d="M 59.13 217.909 
L 404.29 217.909 
" style="fill: none; stroke: #000000; stroke-width: 0.8; stroke-linejoin: miter; stroke-linecap: square"/>
   </g>
   <g id="text_8">
    <!-- Average Training Loss Over Epochs -->
    <g transform="translate(63.662 21.789) scale(0.192 -0.192)">
     <defs>
      <path id="DejaVuSans-41" d="M 2188 4044 
L 1331 1722 
L 3047 1722 
L 2188 4044 
z
M 1831 4666 
L 2547 4666 
L 4325 0 
L 3669 0 
L 3244 1197 
L 1141 1197 
L 716 0 
L 50 0 
L 1831 4666 
z
" transform="scale(0.015625)"/>
      <path id="DejaVuSans-76" d="M 191 3500 
L 800 3500 
L 1894 563 
L 2988 3500 
L 3597 3500 
L 2284 0 
L 1503 0 
L 191 3500 
z
" transform="scale(0.015625)"/>
      <path id="DejaVuSans-67" d="M 2906 1791 
Q 2906 2416 2648 2759 
Q 2391 3103 1925 3103 
Q 1463 3103 1205 2759 
Q 947 2416 947 1791 
Q 947 1169 1205 825 
Q 1463 481 1925 481 
Q 2391 481 2648 825 
Q 2906 1169 2906 1791 
z
M 3481 434 
Q 3481 -459 3084 -895 
Q 2688 -1331 1869 -1331 
Q 1566 -1331 1297 -1286 
Q 1028 -1241 775 -1147 
L 775 -588 
Q 1028 -725 1275 -790 
Q 1522 -856 1778 -856 
Q 2344 -856 2625 -561 
Q 2906 -266 2906 331 
L 2906 616 
Q 2728 306 2450 153 
Q 2172 0 1784 0 
Q 1141 0 747 490 
Q 353 981 353 1791 
Q 353 2603 747 3093 
Q 1141 3584 1784 3584 
Q 2172 3584 2450 3431 
Q 2728 3278 2906 2969 
L 2906 3500 
L 3481 3500 
L 3481 434 
z
" transform="scale(0.015625)"/>
      <path id="DejaVuSans-4f" d="M 2522 4238 
Q 1834 4238 1429 3725 
Q 1025 3213 1025 2328 
Q 1025 1447 1429 934 
Q 1834 422 2522 422 
Q 3209 422 3611 934 
Q 4013 1447 4013 2328 
Q 4013 3213 3611 3725 
Q 3209 4238 2522 4238 
z
M 2522 4750 
Q 3503 4750 4090 4092 
Q 4678 3434 4678 2328 
Q 4678 1225 4090 567 
Q 3503 -91 2522 -91 
Q 1538 -91 948 565 
Q 359 1222 359 2328 
Q 359 3434 948 4092 
Q 1538 4750 2522 4750 
z
" transform="scale(0.015625)"/>
     </defs>
     <use xlink:href="#DejaVuSans-41"/>
     <use xlink:href="#DejaVuSans-76" x="62.533203"/>
     <use xlink:href="#DejaVuSans-65" x="121.712891"/>
     <use xlink:href="#DejaVuSans-72" x="183.236328"/>
     <use xlink:href="#DejaVuSans-61" x="224.349609"/>
     <use xlink:href="#DejaVuSans-67" x="285.628906"/>
     <use xlink:href="#DejaVuSans-65" x="349.105469"/>
     <use xlink:href="#DejaVuSans-20" x="410.628906"/>
     <use xlink:href="#DejaVuSans-54" x="442.416016"/>
     <use xlink:href="#DejaVuSans-72" x="488.75"/>
     <use xlink:href="#DejaVuSans-61" x="529.863281"/>
     <use xlink:href="#DejaVuSans-69" x="591.142578"/>
     <use xlink:href="#DejaVuSans-6e" x="618.925781"/>
     <use xlink:href="#DejaVuSans-69" x="682.304688"/>
     <use xlink:href="#DejaVuSans-6e" x="710.087891"/>
     <use xlink:href="#DejaVuSans-67" x="773.466797"/>
     <use xlink:href="#DejaVuSans-20" x="836.943359"/>
     <use xlink:href="#DejaVuSans-4c" x="868.730469"/>
     <use xlink:href="#DejaVuSans-6f" x="922.693359"/>
     <use xlink:href="#DejaVuSans-73" x="983.875"/>
     <use xlink:href="#DejaVuSans-73" x="1035.974609"/>
     <use xlink:href="#DejaVuSans-20" x="1088.074219"/>
     <use xlink:href="#DejaVuSans-4f" x="1119.861328"/>
     <use xlink:href="#DejaVuSans-76" x="1198.572266"/>
     <use xlink:href="#DejaVuSans-65" x="1257.751953"/>
     <use xlink:href="#DejaVuSans-72" x="1319.275391"/>
     <use xlink:href="#DejaVuSans-20" x="1360.388672"/>
     <use xlink:href="#DejaVuSans-45" x="1392.175781"/>
     <use xlink:href="#DejaVuSans-70" x="1455.359375"/>
     <use xlink:href="#DejaVuSans-6f" x="1518.835938"/>
     <use xlink:href="#DejaVuSans-63" x="1580.017578"/>
     <use xlink:href="#DejaVuSans-68" x="1634.998047"/>
     <use xlink:href="#DejaVuSans-73" x="1698.376953"/>
    </g>
   </g>
   <g id="legend_1">
    <g id="patch_5">
     <path d="M 284.2075 101.559 
L 393.09 101.559 
Q 396.29 101.559 396.29 98.359 
L 396.29 52.989 
Q 396.29 49.789 393.09 49.789 
L 284.2075 49.789 
Q 281.0075 49.789 281.0075 52.989 
L 281.0075 98.359 
Q 281.0075 101.559 284.2075 101.559 
z
" style="fill: #ffffff; opacity: 0.8; stroke: #cccccc; stroke-linejoin: miter"/>
    </g>
    <g id="line2d_8">
     <path d="M 287.4075 62.7465 
L 303.4075 62.7465 
L 319.4075 62.7465 
" style="fill: none; stroke: #0000ff; stroke-width: 2; stroke-linecap: square"/>
    </g>
    <g id="text_9">
     <!-- AE -->
     <g transform="translate(332.2075 68.3465) scale(0.16 -0.16)">
      <use xlink:href="#DejaVuSans-41"/>
      <use xlink:href="#DejaVuSans-45" x="68.408203"/>
     </g>
    </g>
    <g id="line2d_9">
     <path d="M 287.4075 86.2315 
L 303.4075 86.2315 
L 319.4075 86.2315 
" style="fill: none; stroke: #ff0000; stroke-width: 2; stroke-linecap: square"/>
    </g>
    <g id="text_10">
     <!-- Dev-AE -->
     <g transform="translate(332.2075 91.8315) scale(0.16 -0.16)">
      <defs>
       <path id="DejaVuSans-44" d="M 1259 4147 
L 1259 519 
L 2022 519 
Q 2988 519 3436 956 
Q 3884 1394 3884 2338 
Q 3884 3275 3436 3711 
Q 2988 4147 2022 4147 
L 1259 4147 
z
M 628 4666 
L 1925 4666 
Q 3281 4666 3915 4102 
Q 4550 3538 4550 2338 
Q 4550 1131 3912 565 
Q 3275 0 1925 0 
L 628 0 
L 628 4666 
z
" transform="scale(0.015625)"/>
       <path id="DejaVuSans-2d" d="M 313 2009 
L 1997 2009 
L 1997 1497 
L 313 1497 
L 313 2009 
z
" transform="scale(0.015625)"/>
      </defs>
      <use xlink:href="#DejaVuSans-44"/>
      <use xlink:href="#DejaVuSans-65" x="77.001953"/>
      <use xlink:href="#DejaVuSans-76" x="138.525391"/>
      <use xlink:href="#DejaVuSans-2d" x="195.080078"/>
      <use xlink:href="#DejaVuSans-41" x="228.914062"/>
      <use xlink:href="#DejaVuSans-45" x="297.322266"/>
     </g>
    </g>
   </g>
  </g>
 </g>
 <defs>
  <clipPath id="pd5a9c95d31">
   <rect x="59.13" y="41.789" width="345.16" height="176.12"/>
  </clipPath>
 </defs>
</svg>
