<?xml version="1.0" encoding="utf-8" standalone="no"?>
<!DOCTYPE svg PUBLIC "-//W3C//DTD SVG 1.1//EN"
  "http://www.w3.org/Graphics/SVG/1.1/DTD/svg11.dtd">
<svg xmlns:xlink="http://www.w3.org/1999/xlink" width="411.49pt" height="266.96875pt" viewBox="0 0 411.49 266.96875" xmlns="http://www.w3.org/2000/svg" version="1.1">
 <metadata>
  <rdf:RDF xmlns:dc="http://purl.org/dc/elements/1.1/" xmlns:cc="http://creativecommons.org/ns#" xmlns:rdf="http://www.w3.org/1999/02/22-rdf-syntax-ns#">
   <cc:Work>
    <dc:type rdf:resource="http://purl.org/dc/dcmitype/StillImage"/>
    <dc:date>2025-02-08T22:45:45.556621</dc:date>
    <dc:format>image/svg+xml</dc:format>
    <dc:creator>
     <cc:Agent>
      <dc:title>Matplotlib v3.9.2, https://matplotlib.org/</dc:title>
     </cc:Agent>
    </dc:creator>
   </cc:Work>
  </rdf:RDF>
 </metadata>
 <defs>
  <style type="text/css">*{stroke-linejoin: round; stroke-linecap: butt}</style>
 </defs>
 <g id="figure_1">
  <g id="patch_1">
   <path d="M 0 266.96875 
L 411.49 266.96875 
L 411.49 0 
L 0 0 
z
" style="fill: #ffffff"/>
  </g>
  <g id="axes_1">
   <g id="patch_2">
    <path d="M 59.13 217.79875 
L 404.29 217.79875 
L 404.29 13.27875 
L 59.13 13.27875 
z
" style="fill: #ffffff"/>
   </g>
   <g id="PolyCollection_1">
    <defs>
     <path id="mc030357257" d="M 74.819091 -168.192348 
L 74.819091 -164.140237 
L 81.222801 -114.186925 
L 87.626512 -99.182513 
L 94.030223 -91.83625 
L 100.433933 -87.541427 
L 106.837644 -84.617 
L 113.241354 -82.43795 
L 119.645065 -80.718134 
L 126.048776 -79.299113 
L 132.452486 -78.134879 
L 138.856197 -77.130926 
L 145.259907 -76.282961 
L 151.663618 -75.53891 
L 158.067328 -74.837348 
L 164.471039 -74.255519 
L 170.87475 -73.740275 
L 177.27846 -73.237651 
L 183.682171 -72.787509 
L 190.085881 -72.365601 
L 196.489592 -71.989292 
L 202.893302 -71.634633 
L 209.297013 -71.317947 
L 215.700724 -71.006296 
L 222.104434 -70.747986 
L 228.508145 -70.483643 
L 234.911855 -70.236151 
L 241.315566 -70.022549 
L 247.719276 -69.817586 
L 254.122987 -69.618679 
L 260.526698 -69.418136 
L 266.930408 -69.22417 
L 273.334119 -69.048199 
L 279.737829 -68.885921 
L 286.14154 -68.733442 
L 292.54525 -68.584033 
L 298.948961 -68.437965 
L 305.352672 -68.305433 
L 311.756382 -68.163162 
L 318.160093 -68.059011 
L 324.563803 -67.928239 
L 330.967514 -67.799568 
L 337.371224 -67.694645 
L 343.774935 -67.585325 
L 350.178646 -67.481031 
L 356.582356 -67.372537 
L 362.986067 -67.287159 
L 369.389777 -67.182639 
L 375.793488 -67.09894 
L 382.197199 -66.992712 
L 388.600909 -66.917381 
L 388.600909 -68.260622 
L 388.600909 -68.260622 
L 382.197199 -68.364849 
L 375.793488 -68.454145 
L 369.389777 -68.576523 
L 362.986067 -68.680977 
L 356.582356 -68.791329 
L 350.178646 -68.908944 
L 343.774935 -68.990701 
L 337.371224 -69.106596 
L 330.967514 -69.234948 
L 324.563803 -69.351917 
L 318.160093 -69.477397 
L 311.756382 -69.621086 
L 305.352672 -69.767001 
L 298.948961 -69.924546 
L 292.54525 -70.067665 
L 286.14154 -70.230481 
L 279.737829 -70.406516 
L 273.334119 -70.572527 
L 266.930408 -70.757138 
L 260.526698 -70.939133 
L 254.122987 -71.164548 
L 247.719276 -71.38171 
L 241.315566 -71.623204 
L 234.911855 -71.873468 
L 228.508145 -72.152457 
L 222.104434 -72.438861 
L 215.700724 -72.723452 
L 209.297013 -73.05336 
L 202.893302 -73.390907 
L 196.489592 -73.773384 
L 190.085881 -74.178552 
L 183.682171 -74.613613 
L 177.27846 -75.095784 
L 170.87475 -75.61286 
L 164.471039 -76.174026 
L 158.067328 -76.793123 
L 151.663618 -77.500683 
L 145.259907 -78.330219 
L 138.856197 -79.289417 
L 132.452486 -80.358606 
L 126.048776 -81.600463 
L 119.645065 -83.11452 
L 113.241354 -84.943332 
L 106.837644 -87.163581 
L 100.433933 -90.202871 
L 94.030223 -94.808667 
L 87.626512 -102.316301 
L 81.222801 -117.743259 
L 74.819091 -168.192348 
z
" style="stroke: #0000ff; stroke-opacity: 0.2"/>
    </defs>
    <g clip-path="url(#p369593a172)">
     <use xlink:href="#mc030357257" x="0" y="266.96875" style="fill: #0000ff; fill-opacity: 0.2; stroke: #0000ff; stroke-opacity: 0.2"/>
    </g>
   </g>
   <g id="PolyCollection_2">
    <defs>
     <path id="m36d552998e" d="M 74.819091 -244.313542 
L 74.819091 -243.443971 
L 81.222801 -166.814197 
L 87.626512 -138.480758 
L 94.030223 -128.014258 
L 100.433933 -122.777828 
L 106.837644 -132.165658 
L 113.241354 -117.200094 
L 119.645065 -111.753586 
L 126.048776 -108.444971 
L 132.452486 -105.888374 
L 138.856197 -104.722422 
L 145.259907 -101.003999 
L 151.663618 -97.434859 
L 158.067328 -94.20604 
L 164.471039 -91.854297 
L 170.87475 -90.035631 
L 177.27846 -88.582273 
L 183.682171 -89.455937 
L 190.085881 -86.414347 
L 196.489592 -85.179272 
L 202.893302 -83.828896 
L 209.297013 -82.461323 
L 215.700724 -81.232154 
L 222.104434 -80.151321 
L 228.508145 -81.464615 
L 234.911855 -78.626512 
L 241.315566 -77.785486 
L 247.719276 -77.028203 
L 254.122987 -76.339408 
L 260.526698 -75.669414 
L 266.930408 -75.066103 
L 273.334119 -74.478535 
L 279.737829 -73.928544 
L 286.14154 -73.436622 
L 292.54525 -72.939163 
L 298.948961 -72.515139 
L 305.352672 -72.108754 
L 311.756382 -71.730433 
L 318.160093 -71.387388 
L 324.563803 -71.04366 
L 330.967514 -70.756289 
L 337.371224 -70.473234 
L 343.774935 -70.198284 
L 350.178646 -69.949845 
L 356.582356 -69.719111 
L 362.986067 -69.491656 
L 369.389777 -69.284377 
L 375.793488 -69.0746 
L 382.197199 -68.894351 
L 388.600909 -68.700068 
L 388.600909 -70.805558 
L 388.600909 -70.805558 
L 382.197199 -70.992049 
L 375.793488 -71.187405 
L 369.389777 -71.395396 
L 362.986067 -71.607847 
L 356.582356 -71.827145 
L 350.178646 -72.07763 
L 343.774935 -72.326072 
L 337.371224 -72.589541 
L 330.967514 -72.848843 
L 324.563803 -73.158417 
L 318.160093 -73.469729 
L 311.756382 -73.804787 
L 305.352672 -74.189068 
L 298.948961 -74.583746 
L 292.54525 -75.012479 
L 286.14154 -75.47668 
L 279.737829 -75.966784 
L 273.334119 -76.485136 
L 266.930408 -77.06195 
L 260.526698 -77.642126 
L 254.122987 -78.292462 
L 247.719276 -78.991726 
L 241.315566 -79.763422 
L 234.911855 -80.752282 
L 228.508145 -87.276239 
L 222.104434 -81.884786 
L 215.700724 -82.865776 
L 209.297013 -83.988338 
L 202.893302 -85.214353 
L 196.489592 -86.53523 
L 190.085881 -87.885387 
L 183.682171 -93.499949 
L 177.27846 -90.086959 
L 170.87475 -91.61156 
L 164.471039 -93.572003 
L 158.067328 -96.208482 
L 151.663618 -99.587094 
L 145.259907 -103.104956 
L 138.856197 -107.140332 
L 132.452486 -107.890337 
L 126.048776 -110.608862 
L 119.645065 -114.290163 
L 113.241354 -120.529038 
L 106.837644 -141.470638 
L 100.433933 -140.621642 
L 94.030223 -147.627891 
L 87.626512 -154.563116 
L 81.222801 -176.478597 
L 74.819091 -244.313542 
z
" style="stroke: #ff0000; stroke-opacity: 0.2"/>
    </defs>
    <g clip-path="url(#p369593a172)">
     <use xlink:href="#m36d552998e" x="0" y="266.96875" style="fill: #ff0000; fill-opacity: 0.2; stroke: #ff0000; stroke-opacity: 0.2"/>
    </g>
   </g>
   <g id="matplotlib.axis_1">
    <g id="xtick_1">
     <g id="line2d_1">
      <defs>
       <path id="m42bcfaee07" d="M 0 0 
L 0 3.5 
" style="stroke: #000000; stroke-width: 0.8"/>
      </defs>
      <g>
       <use xlink:href="#m42bcfaee07" x="74.819091" y="217.79875" style="stroke: #000000; stroke-width: 0.8"/>
      </g>
     </g>
     <g id="text_1">
      <!-- 0 -->
      <g transform="translate(69.729091 236.95625) scale(0.16 -0.16)">
       <defs>
        <path id="DejaVuSans-30" d="M 2034 4250 
Q 1547 4250 1301 3770 
Q 1056 3291 1056 2328 
Q 1056 1369 1301 889 
Q 1547 409 2034 409 
Q 2525 409 2770 889 
Q 3016 1369 3016 2328 
Q 3016 3291 2770 3770 
Q 2525 4250 2034 4250 
z
M 2034 4750 
Q 2819 4750 3233 4129 
Q 3647 3509 3647 2328 
Q 3647 1150 3233 529 
Q 2819 -91 2034 -91 
Q 1250 -91 836 529 
Q 422 1150 422 2328 
Q 422 3509 836 4129 
Q 1250 4750 2034 4750 
z
" transform="scale(0.015625)"/>
       </defs>
       <use xlink:href="#DejaVuSans-30"/>
      </g>
     </g>
    </g>
    <g id="xtick_2">
     <g id="line2d_2">
      <g>
       <use xlink:href="#m42bcfaee07" x="234.911855" y="217.79875" style="stroke: #000000; stroke-width: 0.8"/>
      </g>
     </g>
     <g id="text_2">
      <!-- 25 -->
      <g transform="translate(224.731855 236.95625) scale(0.16 -0.16)">
       <defs>
        <path id="DejaVuSans-32" d="M 1228 531 
L 3431 531 
L 3431 0 
L 469 0 
L 469 531 
Q 828 903 1448 1529 
Q 2069 2156 2228 2338 
Q 2531 2678 2651 2914 
Q 2772 3150 2772 3378 
Q 2772 3750 2511 3984 
Q 2250 4219 1831 4219 
Q 1534 4219 1204 4116 
Q 875 4013 500 3803 
L 500 4441 
Q 881 4594 1212 4672 
Q 1544 4750 1819 4750 
Q 2544 4750 2975 4387 
Q 3406 4025 3406 3419 
Q 3406 3131 3298 2873 
Q 3191 2616 2906 2266 
Q 2828 2175 2409 1742 
Q 1991 1309 1228 531 
z
" transform="scale(0.015625)"/>
        <path id="DejaVuSans-35" d="M 691 4666 
L 3169 4666 
L 3169 4134 
L 1269 4134 
L 1269 2991 
Q 1406 3038 1543 3061 
Q 1681 3084 1819 3084 
Q 2600 3084 3056 2656 
Q 3513 2228 3513 1497 
Q 3513 744 3044 326 
Q 2575 -91 1722 -91 
Q 1428 -91 1123 -41 
Q 819 9 494 109 
L 494 744 
Q 775 591 1075 516 
Q 1375 441 1709 441 
Q 2250 441 2565 725 
Q 2881 1009 2881 1497 
Q 2881 1984 2565 2268 
Q 2250 2553 1709 2553 
Q 1456 2553 1204 2497 
Q 953 2441 691 2322 
L 691 4666 
z
" transform="scale(0.015625)"/>
       </defs>
       <use xlink:href="#DejaVuSans-32"/>
       <use xlink:href="#DejaVuSans-35" x="63.623047"/>
      </g>
     </g>
    </g>
    <g id="xtick_3">
     <g id="line2d_3">
      <g>
       <use xlink:href="#m42bcfaee07" x="388.600909" y="217.79875" style="stroke: #000000; stroke-width: 0.8"/>
      </g>
     </g>
     <g id="text_3">
      <!-- 49 -->
      <g transform="translate(378.420909 236.95625) scale(0.16 -0.16)">
       <defs>
        <path id="DejaVuSans-34" d="M 2419 4116 
L 825 1625 
L 2419 1625 
L 2419 4116 
z
M 2253 4666 
L 3047 4666 
L 3047 1625 
L 3713 1625 
L 3713 1100 
L 3047 1100 
L 3047 0 
L 2419 0 
L 2419 1100 
L 313 1100 
L 313 1709 
L 2253 4666 
z
" transform="scale(0.015625)"/>
        <path id="DejaVuSans-39" d="M 703 97 
L 703 672 
Q 941 559 1184 500 
Q 1428 441 1663 441 
Q 2288 441 2617 861 
Q 2947 1281 2994 2138 
Q 2813 1869 2534 1725 
Q 2256 1581 1919 1581 
Q 1219 1581 811 2004 
Q 403 2428 403 3163 
Q 403 3881 828 4315 
Q 1253 4750 1959 4750 
Q 2769 4750 3195 4129 
Q 3622 3509 3622 2328 
Q 3622 1225 3098 567 
Q 2575 -91 1691 -91 
Q 1453 -91 1209 -44 
Q 966 3 703 97 
z
M 1959 2075 
Q 2384 2075 2632 2365 
Q 2881 2656 2881 3163 
Q 2881 3666 2632 3958 
Q 2384 4250 1959 4250 
Q 1534 4250 1286 3958 
Q 1038 3666 1038 3163 
Q 1038 2656 1286 2365 
Q 1534 2075 1959 2075 
z
" transform="scale(0.015625)"/>
       </defs>
       <use xlink:href="#DejaVuSans-34"/>
       <use xlink:href="#DejaVuSans-39" x="63.623047"/>
      </g>
     </g>
    </g>
    <g id="text_4">
     <!-- Epochs Trained -->
     <g transform="translate(171.31125 256.44125) scale(0.16 -0.16)">
      <defs>
       <path id="DejaVuSans-45" d="M 628 4666 
L 3578 4666 
L 3578 4134 
L 1259 4134 
L 1259 2753 
L 3481 2753 
L 3481 2222 
L 1259 2222 
L 1259 531 
L 3634 531 
L 3634 0 
L 628 0 
L 628 4666 
z
" transform="scale(0.015625)"/>
       <path id="DejaVuSans-70" d="M 1159 525 
L 1159 -1331 
L 581 -1331 
L 581 3500 
L 1159 3500 
L 1159 2969 
Q 1341 3281 1617 3432 
Q 1894 3584 2278 3584 
Q 2916 3584 3314 3078 
Q 3713 2572 3713 1747 
Q 3713 922 3314 415 
Q 2916 -91 2278 -91 
Q 1894 -91 1617 61 
Q 1341 213 1159 525 
z
M 3116 1747 
Q 3116 2381 2855 2742 
Q 2594 3103 2138 3103 
Q 1681 3103 1420 2742 
Q 1159 2381 1159 1747 
Q 1159 1113 1420 752 
Q 1681 391 2138 391 
Q 2594 391 2855 752 
Q 3116 1113 3116 1747 
z
" transform="scale(0.015625)"/>
       <path id="DejaVuSans-6f" d="M 1959 3097 
Q 1497 3097 1228 2736 
Q 959 2375 959 1747 
Q 959 1119 1226 758 
Q 1494 397 1959 397 
Q 2419 397 2687 759 
Q 2956 1122 2956 1747 
Q 2956 2369 2687 2733 
Q 2419 3097 1959 3097 
z
M 1959 3584 
Q 2709 3584 3137 3096 
Q 3566 2609 3566 1747 
Q 3566 888 3137 398 
Q 2709 -91 1959 -91 
Q 1206 -91 779 398 
Q 353 888 353 1747 
Q 353 2609 779 3096 
Q 1206 3584 1959 3584 
z
" transform="scale(0.015625)"/>
       <path id="DejaVuSans-63" d="M 3122 3366 
L 3122 2828 
Q 2878 2963 2633 3030 
Q 2388 3097 2138 3097 
Q 1578 3097 1268 2742 
Q 959 2388 959 1747 
Q 959 1106 1268 751 
Q 1578 397 2138 397 
Q 2388 397 2633 464 
Q 2878 531 3122 666 
L 3122 134 
Q 2881 22 2623 -34 
Q 2366 -91 2075 -91 
Q 1284 -91 818 406 
Q 353 903 353 1747 
Q 353 2603 823 3093 
Q 1294 3584 2113 3584 
Q 2378 3584 2631 3529 
Q 2884 3475 3122 3366 
z
" transform="scale(0.015625)"/>
       <path id="DejaVuSans-68" d="M 3513 2113 
L 3513 0 
L 2938 0 
L 2938 2094 
Q 2938 2591 2744 2837 
Q 2550 3084 2163 3084 
Q 1697 3084 1428 2787 
Q 1159 2491 1159 1978 
L 1159 0 
L 581 0 
L 581 4863 
L 1159 4863 
L 1159 2956 
Q 1366 3272 1645 3428 
Q 1925 3584 2291 3584 
Q 2894 3584 3203 3211 
Q 3513 2838 3513 2113 
z
" transform="scale(0.015625)"/>
       <path id="DejaVuSans-73" d="M 2834 3397 
L 2834 2853 
Q 2591 2978 2328 3040 
Q 2066 3103 1784 3103 
Q 1356 3103 1142 2972 
Q 928 2841 928 2578 
Q 928 2378 1081 2264 
Q 1234 2150 1697 2047 
L 1894 2003 
Q 2506 1872 2764 1633 
Q 3022 1394 3022 966 
Q 3022 478 2636 193 
Q 2250 -91 1575 -91 
Q 1294 -91 989 -36 
Q 684 19 347 128 
L 347 722 
Q 666 556 975 473 
Q 1284 391 1588 391 
Q 1994 391 2212 530 
Q 2431 669 2431 922 
Q 2431 1156 2273 1281 
Q 2116 1406 1581 1522 
L 1381 1569 
Q 847 1681 609 1914 
Q 372 2147 372 2553 
Q 372 3047 722 3315 
Q 1072 3584 1716 3584 
Q 2034 3584 2315 3537 
Q 2597 3491 2834 3397 
z
" transform="scale(0.015625)"/>
       <path id="DejaVuSans-20" transform="scale(0.015625)"/>
       <path id="DejaVuSans-54" d="M -19 4666 
L 3928 4666 
L 3928 4134 
L 2272 4134 
L 2272 0 
L 1638 0 
L 1638 4134 
L -19 4134 
L -19 4666 
z
" transform="scale(0.015625)"/>
       <path id="DejaVuSans-72" d="M 2631 2963 
Q 2534 3019 2420 3045 
Q 2306 3072 2169 3072 
Q 1681 3072 1420 2755 
Q 1159 2438 1159 1844 
L 1159 0 
L 581 0 
L 581 3500 
L 1159 3500 
L 1159 2956 
Q 1341 3275 1631 3429 
Q 1922 3584 2338 3584 
Q 2397 3584 2469 3576 
Q 2541 3569 2628 3553 
L 2631 2963 
z
" transform="scale(0.015625)"/>
       <path id="DejaVuSans-61" d="M 2194 1759 
Q 1497 1759 1228 1600 
Q 959 1441 959 1056 
Q 959 750 1161 570 
Q 1363 391 1709 391 
Q 2188 391 2477 730 
Q 2766 1069 2766 1631 
L 2766 1759 
L 2194 1759 
z
M 3341 1997 
L 3341 0 
L 2766 0 
L 2766 531 
Q 2569 213 2275 61 
Q 1981 -91 1556 -91 
Q 1019 -91 701 211 
Q 384 513 384 1019 
Q 384 1609 779 1909 
Q 1175 2209 1959 2209 
L 2766 2209 
L 2766 2266 
Q 2766 2663 2505 2880 
Q 2244 3097 1772 3097 
Q 1472 3097 1187 3025 
Q 903 2953 641 2809 
L 641 3341 
Q 956 3463 1253 3523 
Q 1550 3584 1831 3584 
Q 2591 3584 2966 3190 
Q 3341 2797 3341 1997 
z
" transform="scale(0.015625)"/>
       <path id="DejaVuSans-69" d="M 603 3500 
L 1178 3500 
L 1178 0 
L 603 0 
L 603 3500 
z
M 603 4863 
L 1178 4863 
L 1178 4134 
L 603 4134 
L 603 4863 
z
" transform="scale(0.015625)"/>
       <path id="DejaVuSans-6e" d="M 3513 2113 
L 3513 0 
L 2938 0 
L 2938 2094 
Q 2938 2591 2744 2837 
Q 2550 3084 2163 3084 
Q 1697 3084 1428 2787 
Q 1159 2491 1159 1978 
L 1159 0 
L 581 0 
L 581 3500 
L 1159 3500 
L 1159 2956 
Q 1366 3272 1645 3428 
Q 1925 3584 2291 3584 
Q 2894 3584 3203 3211 
Q 3513 2838 3513 2113 
z
" transform="scale(0.015625)"/>
       <path id="DejaVuSans-65" d="M 3597 1894 
L 3597 1613 
L 953 1613 
Q 991 1019 1311 708 
Q 1631 397 2203 397 
Q 2534 397 2845 478 
Q 3156 559 3463 722 
L 3463 178 
Q 3153 47 2828 -22 
Q 2503 -91 2169 -91 
Q 1331 -91 842 396 
Q 353 884 353 1716 
Q 353 2575 817 3079 
Q 1281 3584 2069 3584 
Q 2775 3584 3186 3129 
Q 3597 2675 3597 1894 
z
M 3022 2063 
Q 3016 2534 2758 2815 
Q 2500 3097 2075 3097 
Q 1594 3097 1305 2825 
Q 1016 2553 972 2059 
L 3022 2063 
z
" transform="scale(0.015625)"/>
       <path id="DejaVuSans-64" d="M 2906 2969 
L 2906 4863 
L 3481 4863 
L 3481 0 
L 2906 0 
L 2906 525 
Q 2725 213 2448 61 
Q 2172 -91 1784 -91 
Q 1150 -91 751 415 
Q 353 922 353 1747 
Q 353 2572 751 3078 
Q 1150 3584 1784 3584 
Q 2172 3584 2448 3432 
Q 2725 3281 2906 2969 
z
M 947 1747 
Q 947 1113 1208 752 
Q 1469 391 1925 391 
Q 2381 391 2643 752 
Q 2906 1113 2906 1747 
Q 2906 2381 2643 2742 
Q 2381 3103 1925 3103 
Q 1469 3103 1208 2742 
Q 947 2381 947 1747 
z
" transform="scale(0.015625)"/>
      </defs>
      <use xlink:href="#DejaVuSans-45"/>
      <use xlink:href="#DejaVuSans-70" x="63.183594"/>
      <use xlink:href="#DejaVuSans-6f" x="126.660156"/>
      <use xlink:href="#DejaVuSans-63" x="187.841797"/>
      <use xlink:href="#DejaVuSans-68" x="242.822266"/>
      <use xlink:href="#DejaVuSans-73" x="306.201172"/>
      <use xlink:href="#DejaVuSans-20" x="358.300781"/>
      <use xlink:href="#DejaVuSans-54" x="390.087891"/>
      <use xlink:href="#DejaVuSans-72" x="436.421875"/>
      <use xlink:href="#DejaVuSans-61" x="477.535156"/>
      <use xlink:href="#DejaVuSans-69" x="538.814453"/>
      <use xlink:href="#DejaVuSans-6e" x="566.597656"/>
      <use xlink:href="#DejaVuSans-65" x="629.976562"/>
      <use xlink:href="#DejaVuSans-64" x="691.5"/>
     </g>
    </g>
   </g>
   <g id="matplotlib.axis_2">
    <g id="ytick_1">
     <g id="line2d_4">
      <defs>
       <path id="me92772c6b6" d="M 0 0 
L -3.5 0 
" style="stroke: #000000; stroke-width: 0.8"/>
      </defs>
      <g>
       <use xlink:href="#me92772c6b6" x="59.13" y="217.79875" style="stroke: #000000; stroke-width: 0.8"/>
      </g>
     </g>
     <g id="text_5">
      <!-- 0.0 -->
      <g transform="translate(26.685 223.8775) scale(0.16 -0.16)">
       <defs>
        <path id="DejaVuSans-2e" d="M 684 794 
L 1344 794 
L 1344 0 
L 684 0 
L 684 794 
z
" transform="scale(0.015625)"/>
       </defs>
       <use xlink:href="#DejaVuSans-30"/>
       <use xlink:href="#DejaVuSans-2e" x="63.623047"/>
       <use xlink:href="#DejaVuSans-30" x="95.410156"/>
      </g>
     </g>
    </g>
    <g id="ytick_2">
     <g id="line2d_5">
      <g>
       <use xlink:href="#me92772c6b6" x="59.13" y="13.27875" style="stroke: #000000; stroke-width: 0.8"/>
      </g>
     </g>
     <g id="text_6">
      <!-- 0.1 -->
      <g transform="translate(26.685 19.3575) scale(0.16 -0.16)">
       <defs>
        <path id="DejaVuSans-31" d="M 794 531 
L 1825 531 
L 1825 4091 
L 703 3866 
L 703 4441 
L 1819 4666 
L 2450 4666 
L 2450 531 
L 3481 531 
L 3481 0 
L 794 0 
L 794 531 
z
" transform="scale(0.015625)"/>
       </defs>
       <use xlink:href="#DejaVuSans-30"/>
       <use xlink:href="#DejaVuSans-2e" x="63.623047"/>
       <use xlink:href="#DejaVuSans-31" x="95.410156"/>
      </g>
     </g>
    </g>
    <g id="text_7">
     <!-- MSE Loss -->
     <g transform="translate(19.3575 152.665) rotate(-90) scale(0.16 -0.16)">
      <defs>
       <path id="DejaVuSans-4d" d="M 628 4666 
L 1569 4666 
L 2759 1491 
L 3956 4666 
L 4897 4666 
L 4897 0 
L 4281 0 
L 4281 4097 
L 3078 897 
L 2444 897 
L 1241 4097 
L 1241 0 
L 628 0 
L 628 4666 
z
" transform="scale(0.015625)"/>
       <path id="DejaVuSans-53" d="M 3425 4513 
L 3425 3897 
Q 3066 4069 2747 4153 
Q 2428 4238 2131 4238 
Q 1616 4238 1336 4038 
Q 1056 3838 1056 3469 
Q 1056 3159 1242 3001 
Q 1428 2844 1947 2747 
L 2328 2669 
Q 3034 2534 3370 2195 
Q 3706 1856 3706 1288 
Q 3706 609 3251 259 
Q 2797 -91 1919 -91 
Q 1588 -91 1214 -16 
Q 841 59 441 206 
L 441 856 
Q 825 641 1194 531 
Q 1563 422 1919 422 
Q 2459 422 2753 634 
Q 3047 847 3047 1241 
Q 3047 1584 2836 1778 
Q 2625 1972 2144 2069 
L 1759 2144 
Q 1053 2284 737 2584 
Q 422 2884 422 3419 
Q 422 4038 858 4394 
Q 1294 4750 2059 4750 
Q 2388 4750 2728 4690 
Q 3069 4631 3425 4513 
z
" transform="scale(0.015625)"/>
       <path id="DejaVuSans-4c" d="M 628 4666 
L 1259 4666 
L 1259 531 
L 3531 531 
L 3531 0 
L 628 0 
L 628 4666 
z
" transform="scale(0.015625)"/>
      </defs>
      <use xlink:href="#DejaVuSans-4d"/>
      <use xlink:href="#DejaVuSans-53" x="86.279297"/>
      <use xlink:href="#DejaVuSans-45" x="149.755859"/>
      <use xlink:href="#DejaVuSans-20" x="212.939453"/>
      <use xlink:href="#DejaVuSans-4c" x="244.726562"/>
      <use xlink:href="#DejaVuSans-6f" x="298.689453"/>
      <use xlink:href="#DejaVuSans-73" x="359.871094"/>
      <use xlink:href="#DejaVuSans-73" x="411.970703"/>
     </g>
    </g>
   </g>
   <g id="line2d_6">
    <path d="M 74.819091 100.802458 
L 81.222801 151.003658 
L 87.626512 166.219343 
L 94.030223 173.646292 
L 100.433933 178.096601 
L 106.837644 181.078459 
L 113.241354 183.278109 
L 119.645065 185.052423 
L 126.048776 186.518962 
L 132.452486 187.722007 
L 138.856197 188.758579 
L 145.259907 189.66216 
L 151.663618 190.448953 
L 158.067328 191.153515 
L 164.471039 191.753978 
L 170.87475 192.292182 
L 177.27846 192.802033 
L 183.682171 193.268189 
L 190.085881 193.696673 
L 196.489592 194.087412 
L 202.893302 194.45598 
L 209.297013 194.783096 
L 215.700724 195.103876 
L 222.104434 195.375326 
L 228.508145 195.6507 
L 234.911855 195.91394 
L 241.315566 196.145874 
L 247.719276 196.369102 
L 254.122987 196.577136 
L 260.526698 196.790115 
L 266.930408 196.978096 
L 273.334119 197.158387 
L 279.737829 197.322531 
L 286.14154 197.486789 
L 292.54525 197.642901 
L 298.948961 197.787495 
L 305.352672 197.932533 
L 311.756382 198.076626 
L 318.160093 198.200546 
L 324.563803 198.328672 
L 330.967514 198.451492 
L 337.371224 198.56813 
L 343.774935 198.680737 
L 350.178646 198.773763 
L 356.582356 198.886817 
L 362.986067 198.984682 
L 369.389777 199.089169 
L 375.793488 199.192207 
L 382.197199 199.289969 
L 388.600909 199.379748 
" clip-path="url(#p369593a172)" style="fill: none; stroke: #0000ff; stroke-width: 2; stroke-linecap: square"/>
   </g>
   <g id="line2d_7">
    <path d="M 74.819091 23.089993 
L 81.222801 95.322353 
L 87.626512 120.446813 
L 94.030223 129.147676 
L 100.433933 135.269015 
L 106.837644 130.150602 
L 113.241354 148.104184 
L 119.645065 153.946876 
L 126.048776 157.441834 
L 132.452486 160.079394 
L 138.856197 161.037373 
L 145.259907 164.914272 
L 151.663618 168.457773 
L 158.067328 171.761489 
L 164.471039 174.2556 
L 170.87475 176.145154 
L 177.27846 177.634134 
L 183.682171 175.490807 
L 190.085881 179.818883 
L 196.489592 181.111499 
L 202.893302 182.447126 
L 209.297013 183.74392 
L 215.700724 184.919785 
L 222.104434 185.950696 
L 228.508145 182.598323 
L 234.911855 187.279353 
L 241.315566 188.194296 
L 247.719276 188.958785 
L 254.122987 189.652815 
L 260.526698 190.31298 
L 266.930408 190.904723 
L 273.334119 191.486914 
L 279.737829 192.021086 
L 286.14154 192.512099 
L 292.54525 192.992929 
L 298.948961 193.419307 
L 305.352672 193.819839 
L 311.756382 194.20114 
L 318.160093 194.540191 
L 324.563803 194.867712 
L 330.967514 195.166184 
L 337.371224 195.437362 
L 343.774935 195.706572 
L 350.178646 195.955013 
L 356.582356 196.195622 
L 362.986067 196.418999 
L 369.389777 196.628863 
L 375.793488 196.837747 
L 382.197199 197.02555 
L 388.600909 197.215937 
" clip-path="url(#p369593a172)" style="fill: none; stroke: #ff0000; stroke-width: 2; stroke-linecap: square"/>
   </g>
   <g id="patch_3">
    <path d="M 59.13 217.79875 
L 59.13 13.27875 
" style="fill: none; stroke: #000000; stroke-width: 0.8; stroke-linejoin: miter; stroke-linecap: square"/>
   </g>
   <g id="patch_4">
    <path d="M 59.13 217.79875 
L 404.29 217.79875 
" style="fill: none; stroke: #000000; stroke-width: 0.8; stroke-linejoin: miter; stroke-linecap: square"/>
   </g>
   <g id="legend_1">
    <g id="patch_5">
     <path d="M 284.2075 73.04875 
L 393.09 73.04875 
Q 396.29 73.04875 396.29 69.84875 
L 396.29 24.47875 
Q 396.29 21.27875 393.09 21.27875 
L 284.2075 21.27875 
Q 281.0075 21.27875 281.0075 24.47875 
L 281.0075 69.84875 
Q 281.0075 73.04875 284.2075 73.04875 
z
" style="fill: #ffffff; opacity: 0.8; stroke: #cccccc; stroke-linejoin: miter"/>
    </g>
    <g id="line2d_8">
     <path d="M 287.4075 34.23625 
L 303.4075 34.23625 
L 319.4075 34.23625 
" style="fill: none; stroke: #0000ff; stroke-width: 2; stroke-linecap: square"/>
    </g>
    <g id="text_8">
     <!-- AE -->
     <g transform="translate(332.2075 39.83625) scale(0.16 -0.16)">
      <defs>
       <path id="DejaVuSans-41" d="M 2188 4044 
L 1331 1722 
L 3047 1722 
L 2188 4044 
z
M 1831 4666 
L 2547 4666 
L 4325 0 
L 3669 0 
L 3244 1197 
L 1141 1197 
L 716 0 
L 50 0 
L 1831 4666 
z
" transform="scale(0.015625)"/>
      </defs>
      <use xlink:href="#DejaVuSans-41"/>
      <use xlink:href="#DejaVuSans-45" x="68.408203"/>
     </g>
    </g>
    <g id="line2d_9">
     <path d="M 287.4075 57.72125 
L 303.4075 57.72125 
L 319.4075 57.72125 
" style="fill: none; stroke: #ff0000; stroke-width: 2; stroke-linecap: square"/>
    </g>
    <g id="text_9">
     <!-- Dev-AE -->
     <g transform="translate(332.2075 63.32125) scale(0.16 -0.16)">
      <defs>
       <path id="DejaVuSans-44" d="M 1259 4147 
L 1259 519 
L 2022 519 
Q 2988 519 3436 956 
Q 3884 1394 3884 2338 
Q 3884 3275 3436 3711 
Q 2988 4147 2022 4147 
L 1259 4147 
z
M 628 4666 
L 1925 4666 
Q 3281 4666 3915 4102 
Q 4550 3538 4550 2338 
Q 4550 1131 3912 565 
Q 3275 0 1925 0 
L 628 0 
L 628 4666 
z
" transform="scale(0.015625)"/>
       <path id="DejaVuSans-76" d="M 191 3500 
L 800 3500 
L 1894 563 
L 2988 3500 
L 3597 3500 
L 2284 0 
L 1503 0 
L 191 3500 
z
" transform="scale(0.015625)"/>
       <path id="DejaVuSans-2d" d="M 313 2009 
L 1997 2009 
L 1997 1497 
L 313 1497 
L 313 2009 
z
" transform="scale(0.015625)"/>
      </defs>
      <use xlink:href="#DejaVuSans-44"/>
      <use xlink:href="#DejaVuSans-65" x="77.001953"/>
      <use xlink:href="#DejaVuSans-76" x="138.525391"/>
      <use xlink:href="#DejaVuSans-2d" x="195.080078"/>
      <use xlink:href="#DejaVuSans-41" x="228.914062"/>
      <use xlink:href="#DejaVuSans-45" x="297.322266"/>
     </g>
    </g>
   </g>
  </g>
 </g>
 <defs>
  <clipPath id="p369593a172">
   <rect x="59.13" y="13.27875" width="345.16" height="204.52"/>
  </clipPath>
 </defs>
</svg>
