<?xml version="1.0" encoding="utf-8" standalone="no"?>
<!DOCTYPE svg PUBLIC "-//W3C//DTD SVG 1.1//EN"
  "http://www.w3.org/Graphics/SVG/1.1/DTD/svg11.dtd">
<svg xmlns:xlink="http://www.w3.org/1999/xlink" width="443.423pt" height="267.079pt" viewBox="0 0 443.423 267.079" xmlns="http://www.w3.org/2000/svg" version="1.1">
 <metadata>
  <rdf:RDF xmlns:dc="http://purl.org/dc/elements/1.1/" xmlns:cc="http://creativecommons.org/ns#" xmlns:rdf="http://www.w3.org/1999/02/22-rdf-syntax-ns#">
   <cc:Work>
    <dc:type rdf:resource="http://purl.org/dc/dcmitype/StillImage"/>
    <dc:date>2025-02-14T12:00:38.493920</dc:date>
    <dc:format>image/svg+xml</dc:format>
    <dc:creator>
     <cc:Agent>
      <dc:title>Matplotlib v3.9.2, https://matplotlib.org/</dc:title>
     </cc:Agent>
    </dc:creator>
   </cc:Work>
  </rdf:RDF>
 </metadata>
 <defs>
  <style type="text/css">*{stroke-linejoin: round; stroke-linecap: butt}</style>
 </defs>
 <g id="figure_1">
  <g id="patch_1">
   <path d="M 0 267.079 
L 443.423 267.079 
L 443.423 0 
L 0 0 
z
" style="fill: #ffffff"/>
  </g>
  <g id="axes_1">
   <g id="patch_2">
    <path d="M 54.045 217.909 
L 404.305 217.909 
L 404.305 41.789 
L 54.045 41.789 
z
" style="fill: #ffffff"/>
   </g>
   <g id="PolyCollection_1">
    <defs>
     <path id="m8e03d95605" d="M 69.965909 -188.854479 
L 69.965909 -84.455677 
L 80.237463 -89.222627 
L 90.509018 -86.290131 
L 100.780572 -90.352689 
L 111.052126 -92.390259 
L 121.32368 -89.023565 
L 131.595235 -88.743193 
L 141.866789 -86.837612 
L 152.138343 -90.516545 
L 162.409897 -90.032539 
L 172.681452 -87.197452 
L 182.953006 -89.043325 
L 193.22456 -85.011356 
L 203.496114 -85.988824 
L 213.767669 -89.6499 
L 224.039223 -88.948114 
L 234.310777 -85.698851 
L 244.582331 -87.871476 
L 254.853886 -91.161859 
L 265.12544 -91.201284 
L 275.396994 -88.437606 
L 285.668548 -85.01961 
L 295.940103 -88.808389 
L 306.211657 -90.737239 
L 316.483211 -88.430188 
L 326.754765 -90.009507 
L 337.02632 -87.842662 
L 347.297874 -83.987202 
L 357.569428 -90.430931 
L 367.840982 -90.070035 
L 378.112537 -92.231171 
L 388.384091 -87.752541 
L 388.384091 -184.077147 
L 388.384091 -184.077147 
L 378.112537 -200.410779 
L 367.840982 -189.059583 
L 357.569428 -192.034789 
L 347.297874 -186.217724 
L 337.02632 -185.844557 
L 326.754765 -188.76845 
L 316.483211 -194.95884 
L 306.211657 -197.647772 
L 295.940103 -183.836037 
L 285.668548 -186.09334 
L 275.396994 -188.685398 
L 265.12544 -189.090012 
L 254.853886 -193.272789 
L 244.582331 -187.501434 
L 234.310777 -188.223574 
L 224.039223 -189.649725 
L 213.767669 -190.050015 
L 203.496114 -185.880908 
L 193.22456 -185.210991 
L 182.953006 -194.067852 
L 172.681452 -188.48362 
L 162.409897 -189.23998 
L 152.138343 -187.939953 
L 141.866789 -190.220164 
L 131.595235 -188.034597 
L 121.32368 -196.38307 
L 111.052126 -194.5651 
L 100.780572 -191.532368 
L 90.509018 -192.003063 
L 80.237463 -192.162188 
L 69.965909 -188.854479 
z
" style="stroke: #0000ff; stroke-opacity: 0.2"/>
    </defs>
    <g clip-path="url(#p827258f1ea)">
     <use xlink:href="#m8e03d95605" x="0" y="267.079" style="fill: #0000ff; fill-opacity: 0.2; stroke: #0000ff; stroke-opacity: 0.2"/>
    </g>
   </g>
   <g id="PolyCollection_2">
    <defs>
     <path id="md175f5f775" d="M 69.965909 -200.318534 
L 69.965909 -87.392614 
L 80.237463 -91.416488 
L 90.509018 -93.192609 
L 100.780572 -87.744717 
L 111.052126 -102.039322 
L 121.32368 -100.571193 
L 131.595235 -109.98948 
L 141.866789 -97.804645 
L 152.138343 -93.259651 
L 162.409897 -92.40303 
L 172.681452 -78.37273 
L 182.953006 -79.6674 
L 193.22456 -79.446917 
L 203.496114 -79.684161 
L 213.767669 -80.789612 
L 224.039223 -76.143164 
L 234.310777 -71.371304 
L 244.582331 -67.614768 
L 254.853886 -70.371131 
L 265.12544 -69.956102 
L 275.396994 -70.476902 
L 285.668548 -71.072833 
L 295.940103 -68.95287 
L 306.211657 -71.022256 
L 316.483211 -64.633549 
L 326.754765 -63.812493 
L 337.02632 -57.175455 
L 347.297874 -63.010832 
L 357.569428 -62.625767 
L 367.840982 -65.354015 
L 378.112537 -63.090134 
L 388.384091 -63.989149 
L 388.384091 -107.77135 
L 388.384091 -107.77135 
L 378.112537 -108.160317 
L 367.840982 -108.788721 
L 357.569428 -108.558265 
L 347.297874 -107.2572 
L 337.02632 -105.363334 
L 326.754765 -108.449292 
L 316.483211 -110.77787 
L 306.211657 -124.669279 
L 295.940103 -121.480896 
L 285.668548 -123.024102 
L 275.396994 -125.210573 
L 265.12544 -120.962684 
L 254.853886 -123.68933 
L 244.582331 -120.552405 
L 234.310777 -123.339211 
L 224.039223 -140.568953 
L 213.767669 -146.713833 
L 203.496114 -145.470385 
L 193.22456 -145.250542 
L 182.953006 -145.95128 
L 172.681452 -141.111287 
L 162.409897 -200.79674 
L 152.138343 -193.722194 
L 141.866789 -211.075601 
L 131.595235 -215.181531 
L 121.32368 -215.009404 
L 111.052126 -217.284545 
L 100.780572 -197.412369 
L 90.509018 -203.256518 
L 80.237463 -203.230894 
L 69.965909 -200.318534 
z
" style="stroke: #ff0000; stroke-opacity: 0.2"/>
    </defs>
    <g clip-path="url(#p827258f1ea)">
     <use xlink:href="#md175f5f775" x="0" y="267.079" style="fill: #ff0000; fill-opacity: 0.2; stroke: #ff0000; stroke-opacity: 0.2"/>
    </g>
   </g>
   <g id="matplotlib.axis_1">
    <g id="xtick_1">
     <g id="line2d_1">
      <defs>
       <path id="m8bfbfbf89d" d="M 0 0 
L 0 3.5 
" style="stroke: #000000; stroke-width: 0.8"/>
      </defs>
      <g>
       <use xlink:href="#m8bfbfbf89d" x="69.965909" y="217.909" style="stroke: #000000; stroke-width: 0.8"/>
      </g>
     </g>
     <g id="text_1">
      <!-- 0 -->
      <g transform="translate(64.875909 237.0665) scale(0.16 -0.16)">
       <defs>
        <path id="DejaVuSans-30" d="M 2034 4250 
Q 1547 4250 1301 3770 
Q 1056 3291 1056 2328 
Q 1056 1369 1301 889 
Q 1547 409 2034 409 
Q 2525 409 2770 889 
Q 3016 1369 3016 2328 
Q 3016 3291 2770 3770 
Q 2525 4250 2034 4250 
z
M 2034 4750 
Q 2819 4750 3233 4129 
Q 3647 3509 3647 2328 
Q 3647 1150 3233 529 
Q 2819 -91 2034 -91 
Q 1250 -91 836 529 
Q 422 1150 422 2328 
Q 422 3509 836 4129 
Q 1250 4750 2034 4750 
z
" transform="scale(0.015625)"/>
       </defs>
       <use xlink:href="#DejaVuSans-30"/>
      </g>
     </g>
    </g>
    <g id="xtick_2">
     <g id="line2d_2">
      <g>
       <use xlink:href="#m8bfbfbf89d" x="121.32368" y="217.909" style="stroke: #000000; stroke-width: 0.8"/>
      </g>
     </g>
     <g id="text_2">
      <!-- 5 -->
      <g transform="translate(116.23368 237.0665) scale(0.16 -0.16)">
       <defs>
        <path id="DejaVuSans-35" d="M 691 4666 
L 3169 4666 
L 3169 4134 
L 1269 4134 
L 1269 2991 
Q 1406 3038 1543 3061 
Q 1681 3084 1819 3084 
Q 2600 3084 3056 2656 
Q 3513 2228 3513 1497 
Q 3513 744 3044 326 
Q 2575 -91 1722 -91 
Q 1428 -91 1123 -41 
Q 819 9 494 109 
L 494 744 
Q 775 591 1075 516 
Q 1375 441 1709 441 
Q 2250 441 2565 725 
Q 2881 1009 2881 1497 
Q 2881 1984 2565 2268 
Q 2250 2553 1709 2553 
Q 1456 2553 1204 2497 
Q 953 2441 691 2322 
L 691 4666 
z
" transform="scale(0.015625)"/>
       </defs>
       <use xlink:href="#DejaVuSans-35"/>
      </g>
     </g>
    </g>
    <g id="xtick_3">
     <g id="line2d_3">
      <g>
       <use xlink:href="#m8bfbfbf89d" x="172.681452" y="217.909" style="stroke: #000000; stroke-width: 0.8"/>
      </g>
     </g>
     <g id="text_3">
      <!-- 10 -->
      <g transform="translate(162.501452 237.0665) scale(0.16 -0.16)">
       <defs>
        <path id="DejaVuSans-31" d="M 794 531 
L 1825 531 
L 1825 4091 
L 703 3866 
L 703 4441 
L 1819 4666 
L 2450 4666 
L 2450 531 
L 3481 531 
L 3481 0 
L 794 0 
L 794 531 
z
" transform="scale(0.015625)"/>
       </defs>
       <use xlink:href="#DejaVuSans-31"/>
       <use xlink:href="#DejaVuSans-30" x="63.623047"/>
      </g>
     </g>
    </g>
    <g id="xtick_4">
     <g id="line2d_4">
      <g>
       <use xlink:href="#m8bfbfbf89d" x="224.039223" y="217.909" style="stroke: #000000; stroke-width: 0.8"/>
      </g>
     </g>
     <g id="text_4">
      <!-- 15 -->
      <g transform="translate(213.859223 237.0665) scale(0.16 -0.16)">
       <use xlink:href="#DejaVuSans-31"/>
       <use xlink:href="#DejaVuSans-35" x="63.623047"/>
      </g>
     </g>
    </g>
    <g id="xtick_5">
     <g id="line2d_5">
      <g>
       <use xlink:href="#m8bfbfbf89d" x="275.396994" y="217.909" style="stroke: #000000; stroke-width: 0.8"/>
      </g>
     </g>
     <g id="text_5">
      <!-- 20 -->
      <g transform="translate(265.216994 237.0665) scale(0.16 -0.16)">
       <defs>
        <path id="DejaVuSans-32" d="M 1228 531 
L 3431 531 
L 3431 0 
L 469 0 
L 469 531 
Q 828 903 1448 1529 
Q 2069 2156 2228 2338 
Q 2531 2678 2651 2914 
Q 2772 3150 2772 3378 
Q 2772 3750 2511 3984 
Q 2250 4219 1831 4219 
Q 1534 4219 1204 4116 
Q 875 4013 500 3803 
L 500 4441 
Q 881 4594 1212 4672 
Q 1544 4750 1819 4750 
Q 2544 4750 2975 4387 
Q 3406 4025 3406 3419 
Q 3406 3131 3298 2873 
Q 3191 2616 2906 2266 
Q 2828 2175 2409 1742 
Q 1991 1309 1228 531 
z
" transform="scale(0.015625)"/>
       </defs>
       <use xlink:href="#DejaVuSans-32"/>
       <use xlink:href="#DejaVuSans-30" x="63.623047"/>
      </g>
     </g>
    </g>
    <g id="xtick_6">
     <g id="line2d_6">
      <g>
       <use xlink:href="#m8bfbfbf89d" x="326.754765" y="217.909" style="stroke: #000000; stroke-width: 0.8"/>
      </g>
     </g>
     <g id="text_6">
      <!-- 25 -->
      <g transform="translate(316.574765 237.0665) scale(0.16 -0.16)">
       <use xlink:href="#DejaVuSans-32"/>
       <use xlink:href="#DejaVuSans-35" x="63.623047"/>
      </g>
     </g>
    </g>
    <g id="xtick_7">
     <g id="line2d_7">
      <g>
       <use xlink:href="#m8bfbfbf89d" x="378.112537" y="217.909" style="stroke: #000000; stroke-width: 0.8"/>
      </g>
     </g>
     <g id="text_7">
      <!-- 30 -->
      <g transform="translate(367.932537 237.0665) scale(0.16 -0.16)">
       <defs>
        <path id="DejaVuSans-33" d="M 2597 2516 
Q 3050 2419 3304 2112 
Q 3559 1806 3559 1356 
Q 3559 666 3084 287 
Q 2609 -91 1734 -91 
Q 1441 -91 1130 -33 
Q 819 25 488 141 
L 488 750 
Q 750 597 1062 519 
Q 1375 441 1716 441 
Q 2309 441 2620 675 
Q 2931 909 2931 1356 
Q 2931 1769 2642 2001 
Q 2353 2234 1838 2234 
L 1294 2234 
L 1294 2753 
L 1863 2753 
Q 2328 2753 2575 2939 
Q 2822 3125 2822 3475 
Q 2822 3834 2567 4026 
Q 2313 4219 1838 4219 
Q 1578 4219 1281 4162 
Q 984 4106 628 3988 
L 628 4550 
Q 988 4650 1302 4700 
Q 1616 4750 1894 4750 
Q 2613 4750 3031 4423 
Q 3450 4097 3450 3541 
Q 3450 3153 3228 2886 
Q 3006 2619 2597 2516 
z
" transform="scale(0.015625)"/>
       </defs>
       <use xlink:href="#DejaVuSans-33"/>
       <use xlink:href="#DejaVuSans-30" x="63.623047"/>
      </g>
     </g>
    </g>
    <g id="text_8">
     <!-- Neuron Index -->
     <g transform="translate(175.555 256.5515) scale(0.16 -0.16)">
      <defs>
       <path id="DejaVuSans-4e" d="M 628 4666 
L 1478 4666 
L 3547 763 
L 3547 4666 
L 4159 4666 
L 4159 0 
L 3309 0 
L 1241 3903 
L 1241 0 
L 628 0 
L 628 4666 
z
" transform="scale(0.015625)"/>
       <path id="DejaVuSans-65" d="M 3597 1894 
L 3597 1613 
L 953 1613 
Q 991 1019 1311 708 
Q 1631 397 2203 397 
Q 2534 397 2845 478 
Q 3156 559 3463 722 
L 3463 178 
Q 3153 47 2828 -22 
Q 2503 -91 2169 -91 
Q 1331 -91 842 396 
Q 353 884 353 1716 
Q 353 2575 817 3079 
Q 1281 3584 2069 3584 
Q 2775 3584 3186 3129 
Q 3597 2675 3597 1894 
z
M 3022 2063 
Q 3016 2534 2758 2815 
Q 2500 3097 2075 3097 
Q 1594 3097 1305 2825 
Q 1016 2553 972 2059 
L 3022 2063 
z
" transform="scale(0.015625)"/>
       <path id="DejaVuSans-75" d="M 544 1381 
L 544 3500 
L 1119 3500 
L 1119 1403 
Q 1119 906 1312 657 
Q 1506 409 1894 409 
Q 2359 409 2629 706 
Q 2900 1003 2900 1516 
L 2900 3500 
L 3475 3500 
L 3475 0 
L 2900 0 
L 2900 538 
Q 2691 219 2414 64 
Q 2138 -91 1772 -91 
Q 1169 -91 856 284 
Q 544 659 544 1381 
z
M 1991 3584 
L 1991 3584 
z
" transform="scale(0.015625)"/>
       <path id="DejaVuSans-72" d="M 2631 2963 
Q 2534 3019 2420 3045 
Q 2306 3072 2169 3072 
Q 1681 3072 1420 2755 
Q 1159 2438 1159 1844 
L 1159 0 
L 581 0 
L 581 3500 
L 1159 3500 
L 1159 2956 
Q 1341 3275 1631 3429 
Q 1922 3584 2338 3584 
Q 2397 3584 2469 3576 
Q 2541 3569 2628 3553 
L 2631 2963 
z
" transform="scale(0.015625)"/>
       <path id="DejaVuSans-6f" d="M 1959 3097 
Q 1497 3097 1228 2736 
Q 959 2375 959 1747 
Q 959 1119 1226 758 
Q 1494 397 1959 397 
Q 2419 397 2687 759 
Q 2956 1122 2956 1747 
Q 2956 2369 2687 2733 
Q 2419 3097 1959 3097 
z
M 1959 3584 
Q 2709 3584 3137 3096 
Q 3566 2609 3566 1747 
Q 3566 888 3137 398 
Q 2709 -91 1959 -91 
Q 1206 -91 779 398 
Q 353 888 353 1747 
Q 353 2609 779 3096 
Q 1206 3584 1959 3584 
z
" transform="scale(0.015625)"/>
       <path id="DejaVuSans-6e" d="M 3513 2113 
L 3513 0 
L 2938 0 
L 2938 2094 
Q 2938 2591 2744 2837 
Q 2550 3084 2163 3084 
Q 1697 3084 1428 2787 
Q 1159 2491 1159 1978 
L 1159 0 
L 581 0 
L 581 3500 
L 1159 3500 
L 1159 2956 
Q 1366 3272 1645 3428 
Q 1925 3584 2291 3584 
Q 2894 3584 3203 3211 
Q 3513 2838 3513 2113 
z
" transform="scale(0.015625)"/>
       <path id="DejaVuSans-20" transform="scale(0.015625)"/>
       <path id="DejaVuSans-49" d="M 628 4666 
L 1259 4666 
L 1259 0 
L 628 0 
L 628 4666 
z
" transform="scale(0.015625)"/>
       <path id="DejaVuSans-64" d="M 2906 2969 
L 2906 4863 
L 3481 4863 
L 3481 0 
L 2906 0 
L 2906 525 
Q 2725 213 2448 61 
Q 2172 -91 1784 -91 
Q 1150 -91 751 415 
Q 353 922 353 1747 
Q 353 2572 751 3078 
Q 1150 3584 1784 3584 
Q 2172 3584 2448 3432 
Q 2725 3281 2906 2969 
z
M 947 1747 
Q 947 1113 1208 752 
Q 1469 391 1925 391 
Q 2381 391 2643 752 
Q 2906 1113 2906 1747 
Q 2906 2381 2643 2742 
Q 2381 3103 1925 3103 
Q 1469 3103 1208 2742 
Q 947 2381 947 1747 
z
" transform="scale(0.015625)"/>
       <path id="DejaVuSans-78" d="M 3513 3500 
L 2247 1797 
L 3578 0 
L 2900 0 
L 1881 1375 
L 863 0 
L 184 0 
L 1544 1831 
L 300 3500 
L 978 3500 
L 1906 2253 
L 2834 3500 
L 3513 3500 
z
" transform="scale(0.015625)"/>
      </defs>
      <use xlink:href="#DejaVuSans-4e"/>
      <use xlink:href="#DejaVuSans-65" x="74.804688"/>
      <use xlink:href="#DejaVuSans-75" x="136.328125"/>
      <use xlink:href="#DejaVuSans-72" x="199.707031"/>
      <use xlink:href="#DejaVuSans-6f" x="238.570312"/>
      <use xlink:href="#DejaVuSans-6e" x="299.751953"/>
      <use xlink:href="#DejaVuSans-20" x="363.130859"/>
      <use xlink:href="#DejaVuSans-49" x="394.917969"/>
      <use xlink:href="#DejaVuSans-6e" x="424.410156"/>
      <use xlink:href="#DejaVuSans-64" x="487.789062"/>
      <use xlink:href="#DejaVuSans-65" x="551.265625"/>
      <use xlink:href="#DejaVuSans-78" x="611.039062"/>
     </g>
    </g>
   </g>
   <g id="matplotlib.axis_2">
    <g id="ytick_1">
     <g id="line2d_8">
      <defs>
       <path id="mc71398cc5c" d="M 0 0 
L -3.5 0 
" style="stroke: #000000; stroke-width: 0.8"/>
      </defs>
      <g>
       <use xlink:href="#mc71398cc5c" x="54.045" y="200.510444" style="stroke: #000000; stroke-width: 0.8"/>
      </g>
     </g>
     <g id="text_9">
      <!-- 2 -->
      <g transform="translate(36.865 206.589194) scale(0.16 -0.16)">
       <use xlink:href="#DejaVuSans-32"/>
      </g>
     </g>
    </g>
    <g id="ytick_2">
     <g id="line2d_9">
      <g>
       <use xlink:href="#mc71398cc5c" x="54.045" y="164.471674" style="stroke: #000000; stroke-width: 0.8"/>
      </g>
     </g>
     <g id="text_10">
      <!-- 4 -->
      <g transform="translate(36.865 170.550424) scale(0.16 -0.16)">
       <defs>
        <path id="DejaVuSans-34" d="M 2419 4116 
L 825 1625 
L 2419 1625 
L 2419 4116 
z
M 2253 4666 
L 3047 4666 
L 3047 1625 
L 3713 1625 
L 3713 1100 
L 3047 1100 
L 3047 0 
L 2419 0 
L 2419 1100 
L 313 1100 
L 313 1709 
L 2253 4666 
z
" transform="scale(0.015625)"/>
       </defs>
       <use xlink:href="#DejaVuSans-34"/>
      </g>
     </g>
    </g>
    <g id="ytick_3">
     <g id="line2d_10">
      <g>
       <use xlink:href="#mc71398cc5c" x="54.045" y="128.432903" style="stroke: #000000; stroke-width: 0.8"/>
      </g>
     </g>
     <g id="text_11">
      <!-- 6 -->
      <g transform="translate(36.865 134.511653) scale(0.16 -0.16)">
       <defs>
        <path id="DejaVuSans-36" d="M 2113 2584 
Q 1688 2584 1439 2293 
Q 1191 2003 1191 1497 
Q 1191 994 1439 701 
Q 1688 409 2113 409 
Q 2538 409 2786 701 
Q 3034 994 3034 1497 
Q 3034 2003 2786 2293 
Q 2538 2584 2113 2584 
z
M 3366 4563 
L 3366 3988 
Q 3128 4100 2886 4159 
Q 2644 4219 2406 4219 
Q 1781 4219 1451 3797 
Q 1122 3375 1075 2522 
Q 1259 2794 1537 2939 
Q 1816 3084 2150 3084 
Q 2853 3084 3261 2657 
Q 3669 2231 3669 1497 
Q 3669 778 3244 343 
Q 2819 -91 2113 -91 
Q 1303 -91 875 529 
Q 447 1150 447 2328 
Q 447 3434 972 4092 
Q 1497 4750 2381 4750 
Q 2619 4750 2861 4703 
Q 3103 4656 3366 4563 
z
" transform="scale(0.015625)"/>
       </defs>
       <use xlink:href="#DejaVuSans-36"/>
      </g>
     </g>
    </g>
    <g id="ytick_4">
     <g id="line2d_11">
      <g>
       <use xlink:href="#mc71398cc5c" x="54.045" y="92.394132" style="stroke: #000000; stroke-width: 0.8"/>
      </g>
     </g>
     <g id="text_12">
      <!-- 8 -->
      <g transform="translate(36.865 98.472882) scale(0.16 -0.16)">
       <defs>
        <path id="DejaVuSans-38" d="M 2034 2216 
Q 1584 2216 1326 1975 
Q 1069 1734 1069 1313 
Q 1069 891 1326 650 
Q 1584 409 2034 409 
Q 2484 409 2743 651 
Q 3003 894 3003 1313 
Q 3003 1734 2745 1975 
Q 2488 2216 2034 2216 
z
M 1403 2484 
Q 997 2584 770 2862 
Q 544 3141 544 3541 
Q 544 4100 942 4425 
Q 1341 4750 2034 4750 
Q 2731 4750 3128 4425 
Q 3525 4100 3525 3541 
Q 3525 3141 3298 2862 
Q 3072 2584 2669 2484 
Q 3125 2378 3379 2068 
Q 3634 1759 3634 1313 
Q 3634 634 3220 271 
Q 2806 -91 2034 -91 
Q 1263 -91 848 271 
Q 434 634 434 1313 
Q 434 1759 690 2068 
Q 947 2378 1403 2484 
z
M 1172 3481 
Q 1172 3119 1398 2916 
Q 1625 2713 2034 2713 
Q 2441 2713 2670 2916 
Q 2900 3119 2900 3481 
Q 2900 3844 2670 4047 
Q 2441 4250 2034 4250 
Q 1625 4250 1398 4047 
Q 1172 3844 1172 3481 
z
" transform="scale(0.015625)"/>
       </defs>
       <use xlink:href="#DejaVuSans-38"/>
      </g>
     </g>
    </g>
    <g id="ytick_5">
     <g id="line2d_12">
      <g>
       <use xlink:href="#mc71398cc5c" x="54.045" y="56.355362" style="stroke: #000000; stroke-width: 0.8"/>
      </g>
     </g>
     <g id="text_13">
      <!-- 10 -->
      <g transform="translate(26.685 62.434112) scale(0.16 -0.16)">
       <use xlink:href="#DejaVuSans-31"/>
       <use xlink:href="#DejaVuSans-30" x="63.623047"/>
      </g>
     </g>
    </g>
    <g id="text_14">
     <!-- Activation -->
     <g transform="translate(19.3575 169.90025) rotate(-90) scale(0.16 -0.16)">
      <defs>
       <path id="DejaVuSans-41" d="M 2188 4044 
L 1331 1722 
L 3047 1722 
L 2188 4044 
z
M 1831 4666 
L 2547 4666 
L 4325 0 
L 3669 0 
L 3244 1197 
L 1141 1197 
L 716 0 
L 50 0 
L 1831 4666 
z
" transform="scale(0.015625)"/>
       <path id="DejaVuSans-63" d="M 3122 3366 
L 3122 2828 
Q 2878 2963 2633 3030 
Q 2388 3097 2138 3097 
Q 1578 3097 1268 2742 
Q 959 2388 959 1747 
Q 959 1106 1268 751 
Q 1578 397 2138 397 
Q 2388 397 2633 464 
Q 2878 531 3122 666 
L 3122 134 
Q 2881 22 2623 -34 
Q 2366 -91 2075 -91 
Q 1284 -91 818 406 
Q 353 903 353 1747 
Q 353 2603 823 3093 
Q 1294 3584 2113 3584 
Q 2378 3584 2631 3529 
Q 2884 3475 3122 3366 
z
" transform="scale(0.015625)"/>
       <path id="DejaVuSans-74" d="M 1172 4494 
L 1172 3500 
L 2356 3500 
L 2356 3053 
L 1172 3053 
L 1172 1153 
Q 1172 725 1289 603 
Q 1406 481 1766 481 
L 2356 481 
L 2356 0 
L 1766 0 
Q 1100 0 847 248 
Q 594 497 594 1153 
L 594 3053 
L 172 3053 
L 172 3500 
L 594 3500 
L 594 4494 
L 1172 4494 
z
" transform="scale(0.015625)"/>
       <path id="DejaVuSans-69" d="M 603 3500 
L 1178 3500 
L 1178 0 
L 603 0 
L 603 3500 
z
M 603 4863 
L 1178 4863 
L 1178 4134 
L 603 4134 
L 603 4863 
z
" transform="scale(0.015625)"/>
       <path id="DejaVuSans-76" d="M 191 3500 
L 800 3500 
L 1894 563 
L 2988 3500 
L 3597 3500 
L 2284 0 
L 1503 0 
L 191 3500 
z
" transform="scale(0.015625)"/>
       <path id="DejaVuSans-61" d="M 2194 1759 
Q 1497 1759 1228 1600 
Q 959 1441 959 1056 
Q 959 750 1161 570 
Q 1363 391 1709 391 
Q 2188 391 2477 730 
Q 2766 1069 2766 1631 
L 2766 1759 
L 2194 1759 
z
M 3341 1997 
L 3341 0 
L 2766 0 
L 2766 531 
Q 2569 213 2275 61 
Q 1981 -91 1556 -91 
Q 1019 -91 701 211 
Q 384 513 384 1019 
Q 384 1609 779 1909 
Q 1175 2209 1959 2209 
L 2766 2209 
L 2766 2266 
Q 2766 2663 2505 2880 
Q 2244 3097 1772 3097 
Q 1472 3097 1187 3025 
Q 903 2953 641 2809 
L 641 3341 
Q 956 3463 1253 3523 
Q 1550 3584 1831 3584 
Q 2591 3584 2966 3190 
Q 3341 2797 3341 1997 
z
" transform="scale(0.015625)"/>
      </defs>
      <use xlink:href="#DejaVuSans-41"/>
      <use xlink:href="#DejaVuSans-63" x="66.658203"/>
      <use xlink:href="#DejaVuSans-74" x="121.638672"/>
      <use xlink:href="#DejaVuSans-69" x="160.847656"/>
      <use xlink:href="#DejaVuSans-76" x="188.630859"/>
      <use xlink:href="#DejaVuSans-61" x="247.810547"/>
      <use xlink:href="#DejaVuSans-74" x="309.089844"/>
      <use xlink:href="#DejaVuSans-69" x="348.298828"/>
      <use xlink:href="#DejaVuSans-6f" x="376.082031"/>
      <use xlink:href="#DejaVuSans-6e" x="437.263672"/>
     </g>
    </g>
   </g>
   <g id="line2d_13">
    <path d="M 69.965909 130.423922 
L 80.237463 126.386593 
L 90.509018 127.932403 
L 100.780572 126.136471 
L 111.052126 123.601321 
L 121.32368 124.375683 
L 131.595235 128.690105 
L 141.866789 128.550112 
L 152.138343 127.850751 
L 162.409897 127.442741 
L 172.681452 129.238464 
L 182.953006 125.523411 
L 193.22456 131.967827 
L 203.496114 131.144134 
L 213.767669 127.229042 
L 224.039223 127.780081 
L 234.310777 130.117787 
L 244.582331 129.392545 
L 254.853886 124.861676 
L 265.12544 126.933352 
L 275.396994 128.517498 
L 285.668548 131.522525 
L 295.940103 130.756787 
L 306.211657 122.886494 
L 316.483211 125.384486 
L 326.754765 127.690022 
L 337.02632 130.23539 
L 347.297874 131.976537 
L 357.569428 125.84614 
L 367.840982 127.514191 
L 378.112537 120.758025 
L 388.384091 131.164156 
" clip-path="url(#p827258f1ea)" style="fill: none; stroke: #0000ff; stroke-width: 2; stroke-linecap: square"/>
   </g>
   <g id="line2d_14">
    <path d="M 69.965909 123.223426 
L 80.237463 119.755309 
L 90.509018 118.854436 
L 100.780572 124.500457 
L 111.052126 107.417067 
L 121.32368 109.288701 
L 131.595235 104.493495 
L 141.866789 112.638877 
L 152.138343 123.588078 
L 162.409897 120.479115 
L 172.681452 157.336991 
L 182.953006 154.26966 
L 193.22456 154.73027 
L 203.496114 154.501727 
L 213.767669 153.327278 
L 224.039223 158.722941 
L 234.310777 169.723743 
L 244.582331 172.995414 
L 254.853886 170.04877 
L 265.12544 171.619607 
L 275.396994 169.235263 
L 285.668548 170.030532 
L 295.940103 171.862117 
L 306.211657 169.233232 
L 316.483211 179.37329 
L 326.754765 180.948107 
L 337.02632 185.809606 
L 347.297874 181.944984 
L 357.569428 181.486984 
L 367.840982 180.007632 
L 378.112537 181.453775 
L 388.384091 181.19875 
" clip-path="url(#p827258f1ea)" style="fill: none; stroke: #ff0000; stroke-width: 2; stroke-linecap: square"/>
   </g>
   <g id="patch_3">
    <path d="M 54.045 217.909 
L 54.045 41.789 
" style="fill: none; stroke: #000000; stroke-width: 0.8; stroke-linejoin: miter; stroke-linecap: square"/>
   </g>
   <g id="patch_4">
    <path d="M 54.045 217.909 
L 404.305 217.909 
" style="fill: none; stroke: #000000; stroke-width: 0.8; stroke-linejoin: miter; stroke-linecap: square"/>
   </g>
   <g id="text_15">
    <!-- Mean Activation per Neuron Ignoring Zeros -->
    <g transform="translate(22.127 21.789) scale(0.192 -0.192)">
     <defs>
      <path id="DejaVuSans-4d" d="M 628 4666 
L 1569 4666 
L 2759 1491 
L 3956 4666 
L 4897 4666 
L 4897 0 
L 4281 0 
L 4281 4097 
L 3078 897 
L 2444 897 
L 1241 4097 
L 1241 0 
L 628 0 
L 628 4666 
z
" transform="scale(0.015625)"/>
      <path id="DejaVuSans-70" d="M 1159 525 
L 1159 -1331 
L 581 -1331 
L 581 3500 
L 1159 3500 
L 1159 2969 
Q 1341 3281 1617 3432 
Q 1894 3584 2278 3584 
Q 2916 3584 3314 3078 
Q 3713 2572 3713 1747 
Q 3713 922 3314 415 
Q 2916 -91 2278 -91 
Q 1894 -91 1617 61 
Q 1341 213 1159 525 
z
M 3116 1747 
Q 3116 2381 2855 2742 
Q 2594 3103 2138 3103 
Q 1681 3103 1420 2742 
Q 1159 2381 1159 1747 
Q 1159 1113 1420 752 
Q 1681 391 2138 391 
Q 2594 391 2855 752 
Q 3116 1113 3116 1747 
z
" transform="scale(0.015625)"/>
      <path id="DejaVuSans-67" d="M 2906 1791 
Q 2906 2416 2648 2759 
Q 2391 3103 1925 3103 
Q 1463 3103 1205 2759 
Q 947 2416 947 1791 
Q 947 1169 1205 825 
Q 1463 481 1925 481 
Q 2391 481 2648 825 
Q 2906 1169 2906 1791 
z
M 3481 434 
Q 3481 -459 3084 -895 
Q 2688 -1331 1869 -1331 
Q 1566 -1331 1297 -1286 
Q 1028 -1241 775 -1147 
L 775 -588 
Q 1028 -725 1275 -790 
Q 1522 -856 1778 -856 
Q 2344 -856 2625 -561 
Q 2906 -266 2906 331 
L 2906 616 
Q 2728 306 2450 153 
Q 2172 0 1784 0 
Q 1141 0 747 490 
Q 353 981 353 1791 
Q 353 2603 747 3093 
Q 1141 3584 1784 3584 
Q 2172 3584 2450 3431 
Q 2728 3278 2906 2969 
L 2906 3500 
L 3481 3500 
L 3481 434 
z
" transform="scale(0.015625)"/>
      <path id="DejaVuSans-5a" d="M 359 4666 
L 4025 4666 
L 4025 4184 
L 1075 531 
L 4097 531 
L 4097 0 
L 288 0 
L 288 481 
L 3238 4134 
L 359 4134 
L 359 4666 
z
" transform="scale(0.015625)"/>
      <path id="DejaVuSans-73" d="M 2834 3397 
L 2834 2853 
Q 2591 2978 2328 3040 
Q 2066 3103 1784 3103 
Q 1356 3103 1142 2972 
Q 928 2841 928 2578 
Q 928 2378 1081 2264 
Q 1234 2150 1697 2047 
L 1894 2003 
Q 2506 1872 2764 1633 
Q 3022 1394 3022 966 
Q 3022 478 2636 193 
Q 2250 -91 1575 -91 
Q 1294 -91 989 -36 
Q 684 19 347 128 
L 347 722 
Q 666 556 975 473 
Q 1284 391 1588 391 
Q 1994 391 2212 530 
Q 2431 669 2431 922 
Q 2431 1156 2273 1281 
Q 2116 1406 1581 1522 
L 1381 1569 
Q 847 1681 609 1914 
Q 372 2147 372 2553 
Q 372 3047 722 3315 
Q 1072 3584 1716 3584 
Q 2034 3584 2315 3537 
Q 2597 3491 2834 3397 
z
" transform="scale(0.015625)"/>
     </defs>
     <use xlink:href="#DejaVuSans-4d"/>
     <use xlink:href="#DejaVuSans-65" x="86.279297"/>
     <use xlink:href="#DejaVuSans-61" x="147.802734"/>
     <use xlink:href="#DejaVuSans-6e" x="209.082031"/>
     <use xlink:href="#DejaVuSans-20" x="272.460938"/>
     <use xlink:href="#DejaVuSans-41" x="304.248047"/>
     <use xlink:href="#DejaVuSans-63" x="370.90625"/>
     <use xlink:href="#DejaVuSans-74" x="425.886719"/>
     <use xlink:href="#DejaVuSans-69" x="465.095703"/>
     <use xlink:href="#DejaVuSans-76" x="492.878906"/>
     <use xlink:href="#DejaVuSans-61" x="552.058594"/>
     <use xlink:href="#DejaVuSans-74" x="613.337891"/>
     <use xlink:href="#DejaVuSans-69" x="652.546875"/>
     <use xlink:href="#DejaVuSans-6f" x="680.330078"/>
     <use xlink:href="#DejaVuSans-6e" x="741.511719"/>
     <use xlink:href="#DejaVuSans-20" x="804.890625"/>
     <use xlink:href="#DejaVuSans-70" x="836.677734"/>
     <use xlink:href="#DejaVuSans-65" x="900.154297"/>
     <use xlink:href="#DejaVuSans-72" x="961.677734"/>
     <use xlink:href="#DejaVuSans-20" x="1002.791016"/>
     <use xlink:href="#DejaVuSans-4e" x="1034.578125"/>
     <use xlink:href="#DejaVuSans-65" x="1109.382812"/>
     <use xlink:href="#DejaVuSans-75" x="1170.90625"/>
     <use xlink:href="#DejaVuSans-72" x="1234.285156"/>
     <use xlink:href="#DejaVuSans-6f" x="1273.148438"/>
     <use xlink:href="#DejaVuSans-6e" x="1334.330078"/>
     <use xlink:href="#DejaVuSans-20" x="1397.708984"/>
     <use xlink:href="#DejaVuSans-49" x="1429.496094"/>
     <use xlink:href="#DejaVuSans-67" x="1458.988281"/>
     <use xlink:href="#DejaVuSans-6e" x="1522.464844"/>
     <use xlink:href="#DejaVuSans-6f" x="1585.84375"/>
     <use xlink:href="#DejaVuSans-72" x="1647.025391"/>
     <use xlink:href="#DejaVuSans-69" x="1688.138672"/>
     <use xlink:href="#DejaVuSans-6e" x="1715.921875"/>
     <use xlink:href="#DejaVuSans-67" x="1779.300781"/>
     <use xlink:href="#DejaVuSans-20" x="1842.777344"/>
     <use xlink:href="#DejaVuSans-5a" x="1874.564453"/>
     <use xlink:href="#DejaVuSans-65" x="1943.070312"/>
     <use xlink:href="#DejaVuSans-72" x="2004.59375"/>
     <use xlink:href="#DejaVuSans-6f" x="2043.457031"/>
     <use xlink:href="#DejaVuSans-73" x="2104.638672"/>
    </g>
   </g>
   <g id="legend_1">
    <g id="patch_5">
     <path d="M 284.2225 101.559 
L 393.105 101.559 
Q 396.305 101.559 396.305 98.359 
L 396.305 52.989 
Q 396.305 49.789 393.105 49.789 
L 284.2225 49.789 
Q 281.0225 49.789 281.0225 52.989 
L 281.0225 98.359 
Q 281.0225 101.559 284.2225 101.559 
z
" style="fill: #ffffff; opacity: 0.8; stroke: #cccccc; stroke-linejoin: miter"/>
    </g>
    <g id="line2d_15">
     <path d="M 287.4225 62.7465 
L 303.4225 62.7465 
L 319.4225 62.7465 
" style="fill: none; stroke: #0000ff; stroke-width: 2; stroke-linecap: square"/>
    </g>
    <g id="text_16">
     <!-- AE -->
     <g transform="translate(332.2225 68.3465) scale(0.16 -0.16)">
      <defs>
       <path id="DejaVuSans-45" d="M 628 4666 
L 3578 4666 
L 3578 4134 
L 1259 4134 
L 1259 2753 
L 3481 2753 
L 3481 2222 
L 1259 2222 
L 1259 531 
L 3634 531 
L 3634 0 
L 628 0 
L 628 4666 
z
" transform="scale(0.015625)"/>
      </defs>
      <use xlink:href="#DejaVuSans-41"/>
      <use xlink:href="#DejaVuSans-45" x="68.408203"/>
     </g>
    </g>
    <g id="line2d_16">
     <path d="M 287.4225 86.2315 
L 303.4225 86.2315 
L 319.4225 86.2315 
" style="fill: none; stroke: #ff0000; stroke-width: 2; stroke-linecap: square"/>
    </g>
    <g id="text_17">
     <!-- Dev-AE -->
     <g transform="translate(332.2225 91.8315) scale(0.16 -0.16)">
      <defs>
       <path id="DejaVuSans-44" d="M 1259 4147 
L 1259 519 
L 2022 519 
Q 2988 519 3436 956 
Q 3884 1394 3884 2338 
Q 3884 3275 3436 3711 
Q 2988 4147 2022 4147 
L 1259 4147 
z
M 628 4666 
L 1925 4666 
Q 3281 4666 3915 4102 
Q 4550 3538 4550 2338 
Q 4550 1131 3912 565 
Q 3275 0 1925 0 
L 628 0 
L 628 4666 
z
" transform="scale(0.015625)"/>
       <path id="DejaVuSans-2d" d="M 313 2009 
L 1997 2009 
L 1997 1497 
L 313 1497 
L 313 2009 
z
" transform="scale(0.015625)"/>
      </defs>
      <use xlink:href="#DejaVuSans-44"/>
      <use xlink:href="#DejaVuSans-65" x="77.001953"/>
      <use xlink:href="#DejaVuSans-76" x="138.525391"/>
      <use xlink:href="#DejaVuSans-2d" x="195.080078"/>
      <use xlink:href="#DejaVuSans-41" x="228.914062"/>
      <use xlink:href="#DejaVuSans-45" x="297.322266"/>
     </g>
    </g>
   </g>
  </g>
 </g>
 <defs>
  <clipPath id="p827258f1ea">
   <rect x="54.045" y="41.789" width="350.26" height="176.12"/>
  </clipPath>
 </defs>
</svg>
